<svg width="307.75mm" height="299.64mm" version="1.1" viewBox="0 0 307.75 299.64" xmlns="http://www.w3.org/2000/svg">
 <g transform="translate(10.999 38.028)" fill="none">
  <g transform="matrix(.26458 0 0 .26458 -12.535 -38.04)">
   <path d="m592.7 1132.2c-34.629-153.05-100.3-274.73-197.72-368.46-97.614-93.911-227.02-159.67-388.81-200.88 158.43-39.794 284.51-105.27 381.13-197.74 96.679-92.522 163.79-211.99 204.34-359.57 42.631 146.16 109.96 265.93 204.47 358.96 94.441 92.97 215.94 159.17 366.88 198.35-151.92 39.799-276.66 105.36-372.38 199.5-95.563 93.984-162.12 216.38-197.92 369.84z" stroke="#fff" stroke-width="3"/>
  </g>
  <g transform="matrix(.26458 0 0 .26458 61.828 34.436)">
   <path d="m307.77 584.3c-18.184-78.12-52.115-140.4-102.17-188.53-50.244-48.303-116.65-82.26-199.47-103.7 81.075-20.736 145.76-54.539 195.48-102.09 49.777-47.602 84.472-108.91 105.62-184.47 22.198 74.836 56.993 136.29 105.64 184.15 48.586 47.795 110.92 81.967 188.17 102.41-77.777 20.741-141.77 54.595-191.02 103-49.104 48.258-83.472 110.9-102.26 189.24z" stroke="#fff" stroke-width="3"/>
  </g>
  <g transform="matrix(.26458 0 0 .26458 123.96 93.437)">
   <path d="m72.52 132.81c-4.5342-16.545-12.267-29.976-23.291-40.557-11.169-10.72-25.643-18.444-43.413-23.559 17.359-4.9785 31.442-12.654 42.472-23.184 11.088-10.586 19.022-23.992 24.121-40.281 5.2993 16.137 13.23 29.561 24.056 40.193 10.767 10.574 24.34 18.33 40.9 23.269-16.713 4.9836-30.647 12.684-41.572 23.403-10.813 10.61-18.616 24.114-23.272 40.716z" fill="#fff" stroke="#fff" stroke-width="3"/>
  </g>
  <g transform="matrix(.26458 0 0 .26458 3.8707 -21.904)">
   <path d="m529.83 1010.2c-31.001-136.37-89.665-244.82-176.63-328.4-87.161-83.756-202.66-142.44-347.02-179.24 141.36-35.552 253.89-93.979 340.16-176.44 86.33-82.522 146.28-189.04 182.56-320.59 38.123 130.28 98.278 237.07 182.67 320.04 84.321 82.912 192.77 141.98 327.44 176.99-135.55 35.557-246.89 94.061-332.35 178.01-85.311 83.805-144.76 192.89-176.82 329.63z" stroke="#fff" stroke-width="3"/>
  </g>
 </g>
</svg>
