<svg width="55" height="29" viewBox="0 0 55 29" fill="none" xmlns="http://www.w3.org/2000/svg">
<path d="M10.8419 14.8243C10.1462 16.2222 8.72272 17.1758 7.07449 17.1758C4.75201 17.1758 2.86834 15.2686 2.86834 12.917C2.86834 10.5655 4.75201 8.65824 7.07449 8.65824C8.71201 8.65824 10.1355 9.61187 10.8312 10.9881L13.3998 9.68771C12.2332 7.34697 9.8465 5.74316 7.0852 5.74316C3.16801 5.74316 0 8.96164 0 12.917C0 16.8724 3.16801 20.0909 7.0852 20.0909C9.85721 20.0909 12.2547 18.4763 13.4105 16.1355L10.8419 14.8243Z" fill="white"/>
<path d="M18.2695 5.74316L15.444 5.74316L15.444 20.0584L18.2695 20.0584L18.2695 5.74316Z" fill="white"/>
<path d="M53.002 5.75342L47.9619 10.8567L49.9598 12.8796L55 7.77637L53.002 5.75342Z" fill="white"/>
<path d="M45.9379 12.9058L40.8977 18.009L42.8957 20.032L47.9359 14.9287L45.9379 12.9058Z" fill="white"/>
<path d="M42.8957 5.75342L40.8978 7.77631L45.938 12.8796L47.9359 10.8567L42.8957 5.75342Z" fill="white"/>
<path d="M49.9595 12.9058L47.9615 14.9287L53.0019 20.032L54.9999 18.009L49.9595 12.9058Z" fill="white"/>
<path d="M26.7568 2.87171L23.9206 2.87171L23.9206 0L21.095 0L21.095 20.0586L23.9206 20.0586L23.9206 5.74343L26.7568 5.74343L26.7568 2.87171Z" fill="white"/>
<path d="M40.1248 12.9174C40.1248 12.4298 40.0713 11.9421 39.9856 11.4761C39.7716 10.4141 39.3114 9.38468 38.6371 8.5286C37.2886 6.7622 35.2443 5.75439 33.0503 5.75439C29.7003 5.75439 26.7785 8.16016 26.1149 11.4761C26.0186 11.953 25.9651 12.4298 25.9651 12.9174C25.9651 13.3943 26.0079 13.871 26.1042 14.3262C26.7571 17.6639 29.6789 20.0804 33.0503 20.0804C35.2229 20.0804 37.235 19.0943 38.5836 17.3821L36.443 15.7025C35.6082 16.7427 34.3774 17.3388 33.0503 17.3388C31.0917 17.3388 29.4327 16.0275 28.8762 14.2395L40.0177 14.2395C40.082 13.8169 40.1248 13.3617 40.1248 12.9174ZM33.0396 8.48522C35.0731 8.48522 36.7962 9.89399 37.2779 11.8121L28.8013 11.8121C29.2936 9.89399 31.0061 8.48522 33.0396 8.48522Z" fill="white"/>
<path d="M22.2511 23.0171H21.2236L21.2236 26.9291H22.2832C23.4284 26.9291 24.124 26.2464 24.124 24.9569C24.1348 23.6781 23.4391 23.0171 22.2511 23.0171ZM22.2083 26.3873H21.8979L21.8979 23.5698H22.2083C23.0003 23.5698 23.4498 24.0032 23.4498 24.9677C23.4498 25.9213 23.0003 26.3873 22.2083 26.3873Z" fill="white"/>
<path d="M25.9327 23.9272C25.2477 23.9272 24.6055 24.5124 24.6055 25.466C24.6055 26.4305 25.2263 27.0048 26.029 27.0048C26.4036 27.0048 26.7461 26.8748 27.0136 26.6906L26.7889 26.2788C26.5748 26.4088 26.3608 26.4955 26.1146 26.4955C25.6437 26.4955 25.3012 26.1921 25.2477 25.6611L27.0993 25.6611C27.1099 25.5852 27.1313 25.4552 27.1313 25.336C27.1313 24.5016 26.714 23.9272 25.9327 23.9272ZM25.2477 25.1951C25.3119 24.7183 25.6116 24.4474 25.9541 24.4474C26.3608 24.4474 26.5641 24.7292 26.5641 25.1951L25.2477 25.1951Z" fill="white"/>
<path d="M29.0152 25.531C28.9296 25.8236 28.844 26.1162 28.769 26.4088H28.7477C28.662 26.1162 28.5764 25.8128 28.5015 25.531L28.0306 23.9922H27.367L28.3838 26.9289L29.1436 26.9289L30.1283 23.9922H29.4968L29.0152 25.531Z" fill="white"/>
<path d="M31.6802 23.9272C30.9952 23.9272 30.3531 24.5124 30.3531 25.466C30.3531 26.4305 30.9738 27.0048 31.7765 27.0048C32.1511 27.0048 32.4936 26.8748 32.7612 26.6906L32.5364 26.2788C32.3223 26.4088 32.1083 26.4955 31.8622 26.4955C31.3912 26.4955 31.0487 26.1921 30.9952 25.6611L32.8468 25.6611C32.8575 25.5852 32.8789 25.4552 32.8789 25.336C32.8682 24.5016 32.4508 23.9272 31.6802 23.9272ZM30.9845 25.1951C31.0487 24.7183 31.3484 24.4474 31.6909 24.4474C32.0976 24.4474 32.301 24.7292 32.301 25.1951L30.9845 25.1951Z" fill="white"/>
<path d="M34.2704 26.4628C34.1955 26.4628 34.1205 26.3978 34.1205 26.2353L34.1205 22.7134H33.457L33.457 26.1919C33.457 26.6904 33.6282 27.0046 34.0992 27.0046C34.2597 27.0046 34.3667 26.983 34.4524 26.9505L34.3667 26.452C34.3239 26.4628 34.3025 26.4628 34.2704 26.4628Z" fill="white"/>
<path d="M36.1755 23.9272C35.4584 23.9272 34.8055 24.4907 34.8055 25.466C34.8055 26.4414 35.4584 27.0048 36.1755 27.0048C36.8926 27.0048 37.5454 26.4414 37.5454 25.466C37.5454 24.4907 36.8926 23.9272 36.1755 23.9272ZM36.1755 26.463C35.7473 26.463 35.4798 26.0729 35.4798 25.4769C35.4798 24.8809 35.7473 24.4799 36.1755 24.4799C36.6036 24.4799 36.8711 24.8809 36.8711 25.4769C36.8711 26.0621 36.6036 26.463 36.1755 26.463Z" fill="white"/>
<path d="M39.6534 23.9272C39.3322 23.9272 39.0219 24.1006 38.7757 24.3173H38.7543L38.7008 24.0031H38.1657L38.1657 28.0994H38.8292V27.1674L38.8078 26.6797C39.0433 26.8856 39.3002 27.0049 39.557 27.0049C40.1992 27.0049 40.7986 26.4197 40.7986 25.4227C40.7986 24.5124 40.3811 23.9272 39.6534 23.9272ZM39.4179 26.4522C39.2466 26.4522 39.0326 26.3872 38.8185 26.2029L38.8185 24.8158C39.054 24.5883 39.2573 24.4799 39.4714 24.4799C39.9209 24.4799 40.1135 24.8375 40.1135 25.4227C40.1243 26.0946 39.8139 26.4522 39.4179 26.4522Z" fill="white"/>
<path d="M44.6735 23.9272C44.3096 23.9272 44.0206 24.1548 43.7423 24.4583C43.6139 24.1223 43.3677 23.9272 42.9396 23.9272C42.5757 23.9272 42.2974 24.144 42.0513 24.404H42.0299L41.9764 24.0031H41.4412L41.4412 26.9398H42.1048L42.1048 24.8809C42.3296 24.6316 42.5436 24.5016 42.7255 24.5016C43.036 24.5016 43.1858 24.6858 43.1858 25.1735L43.1858 26.929H43.8493L43.8493 24.87C44.0741 24.6208 44.2774 24.4907 44.4701 24.4907C44.7805 24.4907 44.9303 24.675 44.9303 25.1626L44.9303 26.9182H45.5939L45.5939 25.0759C45.5618 24.3499 45.2728 23.9272 44.6735 23.9272Z" fill="white"/>
<path d="M47.4882 23.9272C46.8032 23.9272 46.161 24.5124 46.161 25.466C46.161 26.4305 46.7818 27.0049 47.5845 27.0049C47.9591 27.0049 48.3015 26.8748 48.5691 26.6906L48.3444 26.2788C48.1303 26.4089 47.9163 26.4955 47.6701 26.4955C47.1885 26.4955 46.8567 26.1921 46.8032 25.6611L48.6547 25.6611C48.6654 25.5852 48.6869 25.4552 48.6869 25.336C48.6762 24.5016 48.2588 23.9272 47.4882 23.9272ZM46.7925 25.1951C46.8567 24.7183 47.1564 24.4474 47.4989 24.4474C47.9056 24.4474 48.1089 24.7292 48.1089 25.1951L46.7925 25.1951Z" fill="white"/>
<path d="M50.838 23.9272C50.442 23.9272 50.1424 24.144 49.8855 24.3932H49.8641L49.8105 23.9923H49.2755L49.2755 26.929H49.939L49.939 24.87C50.1852 24.6208 50.3564 24.4907 50.6133 24.4907C50.9343 24.4907 51.0735 24.675 51.0735 25.1626L51.0735 26.9182H51.737L51.737 25.0759C51.7263 24.3499 51.4588 23.9272 50.838 23.9272Z" fill="white"/>
<path d="M53.6849 26.4738C53.3956 26.4738 53.2672 26.3004 53.2672 25.9537L53.2672 24.5341L54.0057 24.5341V24.0031H53.2672V23.2012L52.7216 23.2012L52.6465 24.0031L52.1974 24.0356V24.5341H52.6145L52.6145 25.9537C52.6145 26.5822 52.8607 27.0048 53.5246 27.0048C53.7489 27.0048 53.9524 26.9507 54.1128 26.8964L53.995 26.4088C53.8991 26.4413 53.7814 26.4738 53.6849 26.4738Z" fill="white"/>
</svg>
