<svg width="156" height="26" viewBox="0 0 156 26" fill="none" xmlns="http://www.w3.org/2000/svg">
<path d="M55.3012 15.5026C55.5059 15.5316 55.685 15.5489 55.8382 15.5547C55.9918 15.5605 56.1709 15.5636 56.3756 15.5636C56.8437 15.5636 57.287 15.4883 57.7043 15.3374C58.1216 15.1865 58.4848 14.9678 58.7947 14.6807C59.1043 14.3935 59.3495 14.0444 59.5298 13.6325C59.7102 13.2207 59.8006 12.754 59.8006 12.2322C59.8006 11.6698 59.7168 11.1915 59.55 10.7971C59.3829 10.4026 59.1489 10.0824 58.8472 9.83582C58.5455 9.58954 58.1847 9.41138 57.7649 9.30102C57.3448 9.19065 56.8817 9.13547 56.3756 9.13547C56.0793 9.13547 55.8572 9.18622 55.709 9.28773C55.5609 9.38958 55.456 9.53299 55.3941 9.7183C55.3322 9.90394 55.3012 10.1257 55.3012 10.3839L55.3012 11.2494L55.3012 15.5026ZM55.891 16.2517H55.6364C55.5208 16.2517 55.4089 16.2489 55.3012 16.2428L55.3012 18.8265C55.3012 19.1525 55.2971 19.4322 55.2889 19.6648C55.281 19.8975 55.2661 20.0896 55.2447 20.2408L56.7711 20.1536V20.9463L52.7162 20.9463V20.3628C53.0286 20.3512 53.263 20.2902 53.4191 20.1799C53.5751 20.0695 53.6857 19.9183 53.7502 19.7268C53.8149 19.5347 53.8484 19.3065 53.8512 19.0421C53.8538 18.7778 53.8553 18.4886 53.8553 18.1745L53.8553 10.4605C53.8553 10.2163 53.8595 9.98535 53.8674 9.76769C53.8756 9.54968 53.8904 9.35041 53.9119 9.17056L52.7162 9.2489V8.45625C53.2981 8.44466 53.8958 8.43717 54.5096 8.43445C55.1234 8.43172 55.7561 8.43002 56.4078 8.43002C58.0126 8.43002 59.2323 8.72058 60.0669 9.30102C60.9608 9.93392 61.4078 10.8601 61.4078 12.0796C61.4078 12.3293 61.3823 12.6052 61.3311 12.907C61.2799 13.2091 61.1763 13.5208 61.0199 13.8434C60.8639 14.1656 60.6497 14.4736 60.378 14.7665C60.106 15.0598 59.7639 15.3153 59.352 15.5333C58.94 15.7509 58.4488 15.925 57.878 16.0558C57.3072 16.1863 56.6447 16.2517 55.891 16.2517Z" fill="white"/>
<path d="M65.6106 12.4452C64.9643 12.4452 64.4313 12.6492 64.0115 13.0573C63.5914 13.4654 63.3137 14.1265 63.1794 15.0408L67.3957 15.0408C67.3957 14.7284 67.3635 14.4174 67.2987 14.1075C67.2343 13.7978 67.1304 13.5202 66.9879 13.2743C66.8451 13.0287 66.6606 12.8287 66.4344 12.6754C66.2083 12.5218 65.9337 12.4452 65.6106 12.4452ZM68.9547 15.6853L63.1308 15.7899C63.1254 16.4766 63.1737 17.0989 63.2764 17.6576C63.3784 18.2159 63.5402 18.6931 63.761 19.0889C63.9818 19.4844 64.2658 19.7899 64.613 20.0052C64.9605 20.2202 65.3765 20.3278 65.8611 20.3278C66.1195 20.3278 66.3833 20.29 66.6527 20.214C66.9219 20.1381 67.1819 20.0345 67.4321 19.903C67.6826 19.7715 67.9128 19.6138 68.1229 19.4299C68.3327 19.2459 68.5077 19.0491 68.6479 18.8385L69.0517 19.1955C68.8255 19.5672 68.563 19.8822 68.2641 20.1404C67.9653 20.399 67.6554 20.6098 67.3351 20.772C67.0148 20.9348 66.6932 21.0523 66.37 21.1249C66.0468 21.1974 65.7452 21.2339 65.4653 21.2339C64.8944 21.2339 64.3628 21.1232 63.87 20.9028C63.3772 20.6821 62.9504 20.3656 62.5897 19.9534C62.2289 19.5413 61.9446 19.0446 61.7374 18.4638C61.5301 17.8834 61.4265 17.2301 61.4265 16.5042C61.4265 15.8767 61.526 15.2776 61.7254 14.7056C61.9244 14.1337 62.2071 13.6268 62.5735 13.1857C62.9397 12.7446 63.3784 12.3931 63.8902 12.1318C64.4016 11.8705 64.9699 11.7397 65.5945 11.7397C66.0522 11.7397 66.4844 11.8211 66.8909 11.9836C67.2975 12.1464 67.6541 12.3903 67.9612 12.7153C68.2682 13.0406 68.5105 13.4514 68.6881 13.9477C68.8659 14.4444 68.9547 15.0234 68.9547 15.6853Z" fill="white"/>
<path d="M74.5571 12.7146C74.347 12.7088 74.1341 12.7507 73.919 12.8406C73.7035 12.9309 73.4922 13.063 73.2849 13.2371C73.0774 13.4112 72.8822 13.6203 72.6993 13.8642C72.5161 14.1081 72.3518 14.3782 72.2065 14.6742L72.2226 19.0555C72.2226 19.2936 72.2201 19.5037 72.2147 19.6867C72.2093 19.8699 72.1904 20.0631 72.1581 20.2661L73.2 20.214V20.9453L69.8075 20.9453V20.4143C70.0606 20.4143 70.253 20.3604 70.385 20.2531C70.5171 20.1458 70.6125 19.9963 70.6718 19.8045C70.7309 19.6128 70.7647 19.3835 70.7729 19.1161C70.7808 18.8494 70.7849 18.5561 70.7849 18.2366L70.7849 14.1602C70.7849 13.9746 70.7875 13.7872 70.7928 13.5988C70.7982 13.4098 70.8172 13.2139 70.8494 13.0106L69.6783 13.063V12.331H70.1873C70.4239 12.331 70.6207 12.3184 70.7767 12.2918C70.9328 12.2659 71.0636 12.2295 71.1684 12.1832C71.2736 12.1368 71.3611 12.0861 71.4313 12.0309C71.5011 11.9757 71.5684 11.9161 71.6331 11.8524H72.1095C72.1259 12.0381 72.1404 12.269 72.154 12.5446C72.1673 12.8205 72.1793 13.1761 72.1904 13.6115C72.3142 13.3911 72.4731 13.169 72.6667 12.9452C72.8607 12.7217 73.079 12.5214 73.3213 12.3443C73.5636 12.1672 73.8248 12.0221 74.1047 11.909C74.3846 11.7955 74.6727 11.739 74.969 11.739C75.1197 11.739 75.2666 11.7608 75.4094 11.8044C75.5518 11.848 75.6757 11.9161 75.7809 12.0091C75.8857 12.1021 75.9707 12.2179 76.0352 12.3572C76.0999 12.4969 76.1321 12.6652 76.1321 12.8627C76.1321 12.9438 76.1173 13.0337 76.0879 13.1325C76.0582 13.2313 76.0096 13.3243 75.9426 13.4112C75.875 13.4984 75.7903 13.5713 75.688 13.6292C75.5856 13.6871 75.459 13.716 75.3083 13.716C75.1844 13.716 75.0726 13.6871 74.9731 13.6292C74.8733 13.5713 74.7899 13.497 74.7226 13.4067C74.6553 13.3168 74.6067 13.2126 74.5773 13.0933C74.5476 12.9741 74.541 12.8481 74.5571 12.7146Z" fill="white"/>
<path d="M81.7639 8.34218C81.6833 8.22602 81.574 8.14461 81.4366 8.09794C81.2995 8.05162 81.1716 8.02845 81.0531 8.02845C80.7947 8.02845 80.5818 8.09113 80.415 8.2158C80.2479 8.34082 80.1162 8.50466 80.0192 8.70768C79.9222 8.91104 79.8537 9.13892 79.8132 9.39167C79.7728 9.64442 79.7526 9.8982 79.7526 10.1537V12.0261L81.9822 12.0261V12.7231L79.7526 12.7667L79.7687 19.0555C79.7687 19.2936 79.7662 19.5037 79.7608 19.6867C79.7554 19.8699 79.7336 20.0631 79.696 20.2661L80.7382 20.214V20.9453L77.3698 20.9453V20.4143C77.6228 20.4143 77.8152 20.3604 77.9472 20.2528C78.0793 20.1458 78.175 19.996 78.234 19.8045C78.2934 19.6128 78.3257 19.3835 78.331 19.1161C78.3364 18.8494 78.3392 18.5561 78.3392 18.2366L78.3228 12.8018L76.966 12.8277V12.0261L78.3228 12.0261V11.6518C78.3228 10.9899 78.3753 10.3962 78.4804 9.8706C78.5853 9.34535 78.7562 8.89946 78.9935 8.53361C79.2304 8.16777 79.5387 7.88641 79.9184 7.68884C80.2978 7.49127 80.7597 7.39249 81.3036 7.39249C81.4812 7.39249 81.6739 7.41736 81.8811 7.46675C82.0883 7.51614 82.2794 7.59448 82.4544 7.70178C82.6295 7.80942 82.7763 7.94602 82.8948 8.11123C83.0133 8.27677 83.0723 8.47571 83.0723 8.70768C83.0723 8.94612 83.0079 9.14062 82.8787 9.29153C82.7495 9.44243 82.5849 9.51805 82.3859 9.51805C82.246 9.51805 82.1329 9.49318 82.0466 9.44379C81.9604 9.3944 81.889 9.33206 81.8328 9.25644C81.7762 9.18116 81.7358 9.09975 81.7115 9.01255C81.6871 8.92534 81.6751 8.84734 81.6751 8.77751C81.6751 8.70768 81.6818 8.63683 81.6953 8.56427C81.7086 8.49138 81.7317 8.41746 81.7639 8.34218Z" fill="white"/>
<path d="M86.633 12.4452C85.9866 12.4452 85.4537 12.6492 85.0336 13.0573C84.6137 13.4654 84.3361 14.1265 84.2015 15.0408L88.4181 15.0408C88.4181 14.7284 88.3859 14.4174 88.3211 14.1075C88.2564 13.7978 88.1527 13.5202 88.0103 13.2743C87.8675 13.0287 87.683 12.8287 87.4568 12.6754C87.2306 12.5218 86.9561 12.4452 86.633 12.4452ZM89.9771 15.6853L84.1532 15.7899C84.1478 16.4766 84.1961 17.0989 84.2985 17.6576C84.4008 18.2159 84.5622 18.6931 84.7831 19.0889C85.0039 19.4844 85.2882 19.7899 85.6354 20.0052C85.9828 20.2202 86.3989 20.3278 86.8835 20.3278C87.1419 20.3278 87.4056 20.29 87.6748 20.214C87.9443 20.1381 88.2042 20.0345 88.4544 19.903C88.7049 19.7715 88.9349 19.6138 89.145 19.4299C89.3551 19.2459 89.5301 19.0491 89.67 18.8385L90.074 19.1955C89.8479 19.5672 89.5853 19.8822 89.2865 20.1404C88.9877 20.399 88.6778 20.6098 88.3575 20.772C88.0371 20.9348 87.7152 21.0523 87.3924 21.1249C87.0692 21.1974 86.7675 21.2339 86.4876 21.2339C85.9168 21.2339 85.3852 21.1232 84.8924 20.9028C84.3996 20.6821 83.9725 20.3656 83.612 19.9534C83.2509 19.5413 82.967 19.0446 82.7597 18.4638C82.5525 17.8834 82.4489 17.2301 82.4489 16.5042C82.4489 15.8767 82.5484 15.2775 82.7477 14.7056C82.9467 14.1337 83.2295 13.6268 83.5959 13.1857C83.962 12.7446 84.4008 12.3931 84.9126 12.1318C85.424 11.8705 85.992 11.7397 86.6168 11.7397C87.0746 11.7397 87.5064 11.8211 87.9133 11.9836C88.3199 12.1464 88.6765 12.3903 88.9836 12.7153C89.2903 13.0406 89.5329 13.4514 89.7104 13.9477C89.8883 14.4444 89.9771 15.0234 89.9771 15.6853Z" fill="white"/>
<path d="M96.7909 13.3923C96.7154 13.1832 96.6051 13.0163 96.4598 12.8913C96.3145 12.7666 96.1569 12.6695 95.9873 12.5997C95.8176 12.5302 95.648 12.4852 95.4783 12.4648C95.3087 12.4444 95.1675 12.4341 95.0544 12.4341C94.6772 12.4341 94.3259 12.5169 94.0002 12.6821C93.6742 12.848 93.3931 13.0905 93.1558 13.4097C92.9189 13.7292 92.7319 14.1271 92.5945 14.603C92.4574 15.0792 92.3885 15.6249 92.3885 16.2404C92.3885 16.8328 92.4574 17.3802 92.5945 17.8823C92.7319 18.3847 92.9246 18.8173 93.1723 19.1801C93.4199 19.5432 93.7188 19.8263 94.0688 20.0293C94.4188 20.2326 94.8064 20.3341 95.2319 20.3341C95.4907 20.3341 95.7462 20.295 95.9996 20.2166C96.2526 20.1383 96.4921 20.0293 96.7182 19.89C96.9444 19.7506 97.1532 19.5881 97.3444 19.4022C97.5355 19.2162 97.6985 19.0159 97.833 18.8013L98.2611 19.1583C98.0403 19.5299 97.7885 19.8481 97.5058 20.112C97.223 20.3764 96.9267 20.594 96.6175 20.7654C96.3076 20.9367 95.9955 21.0628 95.6805 21.1442C95.3652 21.2256 95.0677 21.2661 94.7878 21.2661C94.2277 21.2661 93.6998 21.1629 93.2045 20.9568C92.7092 20.7507 92.2758 20.4517 91.9039 20.0599C91.5324 19.6679 91.239 19.1876 91.0235 18.618C90.8081 18.0495 90.7007 17.402 90.7007 16.6761C90.7007 16.2636 90.7478 15.8572 90.8419 15.4566C90.936 15.056 91.0722 14.6742 91.2497 14.3114C91.4276 13.9483 91.643 13.6114 91.896 13.3007C92.1491 12.9901 92.4359 12.7216 92.7562 12.4951C93.0766 12.2686 93.4269 12.0915 93.8063 11.9637C94.186 11.8363 94.5885 11.7723 95.014 11.7723C95.4717 11.7723 95.889 11.8333 96.2659 11.9552C96.6427 12.0772 96.9659 12.2396 97.2354 12.443C97.5045 12.646 97.7117 12.8797 97.8574 13.144C98.0027 13.4084 98.0753 13.6856 98.0753 13.9759C98.0753 14.2313 98.0093 14.4504 97.8776 14.6333C97.7452 14.8165 97.5554 14.9109 97.308 14.9163C97.1624 14.9225 97.0414 14.8976 96.9444 14.8424C96.8474 14.7872 96.7694 14.7191 96.7103 14.6377C96.651 14.5566 96.6077 14.4681 96.5808 14.372C96.554 14.2763 96.5407 14.1908 96.5407 14.1152C96.5407 13.999 96.5581 13.8771 96.5931 13.7493C96.6282 13.6216 96.6942 13.5027 96.7909 13.3923Z" fill="white"/>
<path d="M98.7842 12.0272C99.0751 12.0218 99.3389 11.9356 99.5758 11.7704C99.8127 11.6048 100.022 11.3987 100.202 11.1518C100.382 10.9052 100.534 10.6367 100.658 10.3462C100.782 10.056 100.879 9.78312 100.949 9.5273L101.514 9.5273C101.514 10.0035 101.513 10.448 101.51 10.8599C101.508 11.2727 101.506 11.6617 101.506 12.0272L104.293 12.0272V12.7242L101.506 12.7589C101.501 13.5311 101.498 14.1902 101.498 14.7359C101.498 15.282 101.497 15.7378 101.494 16.1036C101.491 16.4694 101.49 16.7583 101.49 16.9702C101.49 17.182 101.489 17.3435 101.486 17.4535C101.483 17.5639 101.482 17.6351 101.482 17.6668V17.7236C101.482 18.1304 101.502 18.4887 101.543 18.7994C101.583 19.11 101.652 19.3713 101.749 19.5832C101.846 19.795 101.973 19.9548 102.132 20.0624C102.291 20.1697 102.492 20.2236 102.734 20.2236C103.019 20.2236 103.302 20.1306 103.582 19.9446C103.862 19.7589 104.11 19.4949 104.325 19.1519L104.769 19.544C104.527 19.9391 104.286 20.2481 104.047 20.4715C103.807 20.6953 103.58 20.8636 103.364 20.9767C103.149 21.0901 102.948 21.161 102.763 21.1899C102.577 21.2192 102.414 21.2339 102.274 21.2339C102.107 21.2339 101.936 21.2192 101.761 21.1899C101.586 21.161 101.413 21.1044 101.244 21.0203C101.074 20.9362 100.915 20.817 100.767 20.6633C100.619 20.5094 100.488 20.3104 100.376 20.0669C100.262 19.8226 100.173 19.5266 100.109 19.1782C100.044 18.8297 100.015 18.4175 100.02 17.9413L100.053 12.7851L98.7842 12.794V12.0272Z" fill="white"/>
<path d="M33.4139 12.6206C33.0443 12.6206 32.7442 12.2973 32.7442 11.8985C32.7442 11.5003 33.0443 11.1767 33.4139 11.1767C33.7838 11.1767 34.0836 11.5003 34.0836 11.8985C34.0836 12.2973 33.7838 12.6206 33.4139 12.6206Z" fill="white"/>
<path d="M13.934 12.6206C13.5644 12.6206 13.2643 12.2973 13.2643 11.8985C13.2643 11.5003 13.5644 11.1767 13.934 11.1767C14.3036 11.1767 14.6037 11.5003 14.6037 11.8985C14.6037 12.2973 14.3036 12.6206 13.934 12.6206Z" fill="white"/>
<path d="M23.6741 11.3027C23.3045 11.3027 23.0044 10.9798 23.0044 10.5806C23.0044 10.1824 23.3045 9.85878 23.6741 9.85878C24.044 9.85878 24.3438 10.1824 24.3438 10.5806C24.3438 10.9798 24.044 11.3027 23.6741 11.3027Z" fill="white"/>
<path d="M38.8625 15.5565C38.8625 15.5565 37.3715 14.8735 34.7097 14.1241C31.7188 13.2817 27.4756 12.9121 23.6741 12.9046C19.8726 12.9121 15.6554 13.4037 12.6385 14.1241C10.1436 14.7195 8.48575 15.5565 8.48575 15.5565L5.4904 12.1403C5.4904 12.1403 8.75236 12.6263 10.383 11.8981C12.0137 11.1698 12.7918 7.95216 12.7918 7.95216C12.7918 7.95216 16.4167 10.9603 18.549 10.8223C20.6816 10.6834 23.6741 6.29293 23.6741 6.29293C23.6741 6.29293 26.6666 10.6834 28.7993 10.8223C30.9316 10.9603 34.5568 7.95216 34.5568 7.95216C34.5568 7.95216 35.3349 11.1698 36.9652 11.8981C38.5962 12.6263 41.8579 12.1403 41.8579 12.1403L38.8625 15.5565ZM38.0279 17.3601C37.8437 18.0261 37.5541 21.7826 37.2179 22.6407C36.3947 21.9253 30.5332 20.3356 23.6931 20.3356C23.6868 20.3356 23.6808 20.3359 23.6741 20.3359C23.6675 20.3359 23.6615 20.3356 23.6549 20.3356C16.815 20.3356 10.9535 21.9253 10.1303 22.6407C9.79451 21.7826 9.53011 18.0169 9.32035 17.3601C9.22084 17.0485 9.4028 16.7729 9.4028 16.7729C10.3508 15.3834 16.3263 13.7392 23.5756 13.7392H23.7727C31.0222 13.7392 36.9974 15.3834 37.9455 16.7729C37.9455 16.7729 38.1056 17.0791 38.0279 17.3601ZM23.761 25.0793C23.7316 25.0793 23.7035 25.0789 23.6741 25.0789C23.6447 25.0789 23.6166 25.0793 23.5873 25.0793C16.9174 25.0793 11.9117 24.1561 10.8591 23.558C11.5149 22.8825 16.7357 21.4583 23.5873 21.4583C23.6166 21.4583 23.6451 21.459 23.6741 21.459C23.7032 21.459 23.7319 21.4583 23.761 21.4583C30.6125 21.4583 35.8334 22.8825 36.4892 23.558C35.4369 24.1561 30.4309 25.0793 23.761 25.0793ZM47.206 8.35309C47.0481 8.12384 44.917 8.65285 44.2843 8.54657C43.7567 8.34082 43.4588 7.69941 42.9881 7.68238C42.3652 7.65955 41.9071 8.10272 41.9071 8.74959C41.9071 8.82793 41.9153 8.90389 41.9292 8.97815C41.5281 10.1632 39.6908 11.165 38.5188 10.9698C36.7848 10.681 36.4244 9.19718 36.1047 7.96545C35.9512 7.3724 36.8082 7.53591 36.9387 6.69147C37.0455 5.99658 36.6806 5.43147 35.8384 5.1828C36.2658 5.04553 36.5748 4.67492 36.5748 4.23516C36.5748 3.6789 36.4781 2.94586 35.7427 2.79598C35.0749 2.66074 34.3837 3.6789 34.3837 4.23516C34.3837 4.57409 34.5676 4.87316 34.8468 5.0554C33.5816 5.083 32.6276 5.50232 32.7265 6.3832C32.7628 6.70305 32.9729 6.95819 32.887 7.19152C32.8004 7.42486 30.7092 9.42677 29.3319 9.42677C27.8361 9.42677 25.7243 7.39761 25.5591 6.64276C25.5256 6.64174 26.4904 6.063 26.5608 5.45599C26.6897 4.34143 25.7711 3.46668 24.6739 3.13457C24.7892 2.93972 24.8572 2.70707 24.8572 2.45568C24.8572 1.77714 24.3356 0.394503 23.7307 0.394503C23.7117 0.394503 23.6931 0.399272 23.6741 0.401998C23.6552 0.399272 23.6365 0.394503 23.6173 0.394503C23.0123 0.394503 22.4911 1.77714 22.4911 2.45568C22.4911 2.70707 22.559 2.93972 22.6746 3.13457C21.5769 3.46668 20.6582 4.34143 20.7874 5.45599C20.8579 6.063 21.8223 6.64174 21.7892 6.64276C21.6239 7.39761 19.5125 9.42677 18.0164 9.42677C16.6391 9.42677 14.5478 7.42486 14.4616 7.19152C14.375 6.95819 14.5854 6.70305 14.6214 6.3832C14.7203 5.50232 13.7666 5.083 12.5014 5.0554C12.781 4.87316 12.9645 4.57409 12.9645 4.23516C12.9645 3.6789 12.2734 2.66074 11.6056 2.79598C10.8701 2.94586 10.7735 3.6789 10.7735 4.23516C10.7735 4.67492 11.0821 5.04553 11.5098 5.1828C10.6677 5.43147 10.3025 5.99658 10.4096 6.69147C10.5397 7.53591 11.3971 7.3724 11.2435 7.96545C10.9238 9.19718 10.5634 10.681 8.82944 10.9698C7.65746 11.165 5.8202 10.1632 5.41901 8.97815C5.43291 8.90389 5.4408 8.82793 5.4408 8.74959C5.4408 8.10272 4.98307 7.65955 4.36012 7.68238C3.88943 7.69941 3.59154 8.34082 3.06399 8.54657C2.43124 8.65285 0.300196 8.12384 0.142563 8.35309C0.142563 8.35309 9.15527e-05 8.51863 9.15527e-05 8.75674C9.15527e-05 8.94307 7.71053 15.8215 8.30126 16.67C8.87398 17.4933 9.58507 22.6029 9.9035 23.6581C9.91961 23.7814 9.96415 23.9014 10.0428 24.0087C10.9194 25.1998 17.7536 26 23.5873 26C23.6163 26 23.6454 25.9997 23.6741 25.9997C23.7032 25.9997 23.7319 26 23.761 26C29.5947 26 36.4291 25.1998 37.3051 24.0087C37.3841 23.9014 37.429 23.7814 37.4444 23.6581C37.7632 22.6029 38.4743 17.4933 39.047 16.67C39.6377 15.8215 47.3478 8.94307 47.3478 8.75674C47.3478 8.51863 47.206 8.35309 47.206 8.35309Z" fill="white"/>
<path d="M23.6741 14.7352C22.6695 14.7352 21.8548 15.7492 21.8548 16.9987C21.8548 18.2488 22.6695 19.2622 23.6741 19.2622C24.6789 19.2622 25.4933 18.2488 25.4933 16.9987C25.4933 15.7492 24.6789 14.7352 23.6741 14.7352Z" fill="white"/>
<path d="M31.777 20.2318C32.6085 20.4842 33.5085 19.8254 33.7865 18.7599C34.0645 17.6941 33.6156 16.6245 32.7841 16.3731C31.9517 16.1213 31.0521 16.7801 30.7738 17.846C30.4954 18.9115 30.945 19.9797 31.777 20.2318Z" fill="white"/>
<path d="M15.5713 20.2318C14.7398 20.4842 13.8398 19.8254 13.5618 18.7599C13.2835 17.6941 13.7327 16.6245 14.5642 16.3731C15.3966 16.1213 16.2959 16.7801 16.5743 17.846C16.8529 18.9115 16.4034 19.9797 15.5713 20.2318Z" fill="white"/>
<path d="M120.555 20.3341H120.103C119.92 20.3341 119.677 20.3689 119.376 20.4387C119.074 20.5085 118.722 20.6274 118.318 20.7957C118.145 20.8655 117.957 20.9292 117.752 20.9871C117.548 21.0454 117.339 21.0948 117.126 21.1353C116.913 21.1758 116.702 21.2079 116.492 21.2314C116.282 21.2545 116.085 21.2661 115.903 21.2661C115.073 21.2661 114.314 21.1224 113.625 20.8352C112.935 20.5477 112.343 20.1352 111.848 19.598C111.352 19.0612 110.967 18.4048 110.692 17.6298C110.418 16.8546 110.28 15.9791 110.28 15.0035C110.28 14.4463 110.333 13.8904 110.438 13.3358C110.543 12.7809 110.702 12.2526 110.914 11.7505C111.127 11.2484 111.392 10.7807 111.71 10.3481C112.028 9.91549 112.401 9.53977 112.829 9.22026C113.257 8.90074 113.739 8.65106 114.275 8.4712C114.81 8.29101 115.399 8.20108 116.04 8.20108C116.336 8.20108 116.638 8.22424 116.945 8.27091C117.251 8.31758 117.553 8.38264 117.849 8.46677C118.145 8.55091 118.431 8.65378 118.705 8.77573C118.98 8.89768 119.233 9.03427 119.465 9.18517L119.392 8.33154L120.305 8.33154L120.305 12.4168L119.707 12.4168C119.669 11.8578 119.554 11.3601 119.36 10.9238C119.166 10.4871 118.911 10.1202 118.596 9.82352C118.281 9.52683 117.915 9.29963 117.498 9.14225C117.08 8.98522 116.632 8.90653 116.153 8.90653C115.566 8.90653 115.014 9.04756 114.497 9.3296C113.98 9.61131 113.53 10.0034 113.148 10.5062C112.766 11.0089 112.463 11.6074 112.239 12.3016C112.016 12.9962 111.904 13.7589 111.904 14.5897C111.904 15.4324 112.012 16.2097 112.227 16.9217C112.442 17.6336 112.745 18.2464 113.136 18.7607C113.526 19.2751 113.994 19.6774 114.537 19.968C115.081 20.2585 115.679 20.4036 116.331 20.4036C116.551 20.4036 116.783 20.3863 117.025 20.3515C117.267 20.3168 117.511 20.2643 117.756 20.1948C118.001 20.125 118.243 20.0334 118.483 19.9203C118.723 19.8072 118.95 19.6723 119.166 19.5153L119.166 15.6133L118.003 15.6831V14.8993L121.743 14.8993V15.4825C121.538 15.4825 121.365 15.5247 121.225 15.6089C121.085 15.693 120.972 15.8006 120.886 15.9314C120.8 16.0619 120.734 16.207 120.688 16.3668C120.643 16.5265 120.61 16.6846 120.591 16.8413C120.572 16.998 120.562 17.1448 120.559 17.281C120.556 17.4176 120.555 17.5266 120.555 17.608V20.3341Z" fill="white"/>
<path d="M127.266 12.7479C127.056 12.7421 126.843 12.784 126.628 12.8739C126.412 12.9642 126.2 13.0964 125.993 13.2704C125.786 13.4445 125.591 13.6537 125.408 13.8976C125.225 14.1414 125.06 14.4116 124.915 14.7079L124.931 19.0888C124.931 19.3269 124.928 19.5371 124.923 19.7204C124.918 19.9033 124.899 20.0964 124.866 20.2994L125.909 20.2473V20.979L122.516 20.979L122.516 20.4476C122.769 20.4476 122.962 20.3938 123.094 20.2865C123.225 20.1792 123.321 20.0297 123.38 19.8379C123.44 19.6464 123.473 19.4169 123.481 19.1498C123.489 18.8827 123.494 18.5895 123.494 18.2699L123.494 14.1936C123.494 14.0079 123.496 13.8209 123.501 13.6319C123.507 13.4431 123.526 13.2473 123.558 13.0439L122.387 13.0964V12.3647H122.896C123.132 12.3647 123.329 12.3518 123.485 12.3255C123.641 12.2993 123.772 12.2632 123.877 12.2169C123.982 12.1702 124.069 12.1194 124.14 12.0639C124.209 12.0091 124.277 11.9495 124.341 11.8858H124.818C124.834 12.0714 124.849 12.3024 124.862 12.5779C124.876 12.8538 124.888 13.2095 124.899 13.6448C125.023 13.4244 125.181 13.2023 125.375 12.9785C125.569 12.7551 125.787 12.5548 126.03 12.3776C126.272 12.2008 126.533 12.0554 126.813 11.9423C127.093 11.8289 127.381 11.7723 127.677 11.7723C127.828 11.7723 127.975 11.7941 128.118 11.8377C128.26 11.8813 128.384 11.9495 128.489 12.0425C128.594 12.1354 128.679 12.2513 128.744 12.3906C128.808 12.5302 128.841 12.6985 128.841 12.8961C128.841 12.9775 128.826 13.0671 128.796 13.1662C128.767 13.265 128.718 13.3576 128.651 13.4445C128.583 13.5317 128.499 13.6046 128.397 13.6625C128.294 13.7204 128.168 13.7494 128.017 13.7494C127.893 13.7494 127.781 13.7204 127.681 13.6625C127.582 13.6046 127.499 13.5303 127.431 13.4401C127.364 13.3502 127.315 13.2459 127.286 13.1267C127.256 13.0078 127.249 12.8814 127.266 12.7479Z" fill="white"/>
<path d="M132.737 12.4515C132.301 12.4515 131.928 12.5561 131.618 12.7652C131.308 12.9747 131.054 13.2537 130.855 13.6025C130.655 13.9513 130.509 14.3523 130.414 14.806C130.32 15.259 130.273 15.7298 130.273 16.2183C130.273 16.7708 130.326 17.3083 130.431 17.8315C130.536 18.3544 130.696 18.818 130.911 19.2223C131.127 19.626 131.397 19.9499 131.723 20.1941C132.049 20.4384 132.43 20.5603 132.866 20.5603C133.302 20.5603 133.67 20.4544 133.969 20.2425C134.268 20.03 134.51 19.7496 134.696 19.4008C134.882 19.052 135.015 18.6538 135.096 18.2062C135.176 17.7586 135.217 17.2994 135.217 16.8283C135.217 16.2939 135.171 15.7649 135.079 15.2417C134.988 14.7184 134.842 14.2504 134.643 13.8379C134.444 13.425 134.187 13.0909 133.872 12.8351C133.557 12.5793 133.178 12.4515 132.737 12.4515ZM132.737 11.7723C133.318 11.7723 133.862 11.8867 134.369 12.116C134.875 12.3456 135.315 12.662 135.689 13.0657C136.064 13.469 136.36 13.9483 136.578 14.5028C136.796 15.0574 136.905 15.6565 136.905 16.3014C136.905 16.9925 136.799 17.6397 136.586 18.2437C136.373 18.8476 136.08 19.3732 135.705 19.8201C135.331 20.2674 134.889 20.6199 134.381 20.8785C133.872 21.1367 133.324 21.2661 132.737 21.2661C132.155 21.2661 131.613 21.154 131.109 20.9306C130.606 20.7071 130.167 20.3951 129.793 19.9942C129.418 19.5936 129.123 19.116 128.908 18.5615C128.693 18.0069 128.585 17.3985 128.585 16.7367C128.585 16.0343 128.691 15.3796 128.904 14.7726C129.117 14.1659 129.409 13.6403 129.781 13.1961C130.152 12.752 130.591 12.4035 131.097 12.1507C131.603 11.8983 132.15 11.7723 132.737 11.7723Z" fill="white"/>
<path d="M143.832 14.4045C143.832 14.1136 143.837 13.8653 143.848 13.6589C143.858 13.4524 143.88 13.2477 143.912 13.044L142.725 13.0965L142.725 12.3648L143.234 12.3648C143.471 12.3648 143.673 12.3519 143.84 12.3256C144.007 12.2994 144.149 12.2633 144.268 12.217C144.386 12.1703 144.485 12.1195 144.563 12.0644C144.641 12.0092 144.712 11.9496 144.777 11.8859L145.253 11.8859L145.237 18.6274C145.237 18.72 145.236 18.8379 145.233 18.9799C145.23 19.1223 145.226 19.2705 145.221 19.4241C145.216 19.5781 145.209 19.732 145.201 19.8857C145.193 20.0396 145.183 20.1776 145.173 20.2995L146.36 20.2301V20.9791L143.993 20.9791C143.966 20.7757 143.943 20.5884 143.925 20.4171C143.906 20.2461 143.891 20.0761 143.88 19.9078C143.708 20.0935 143.517 20.2692 143.307 20.4348C143.097 20.6 142.874 20.7437 142.64 20.8657C142.406 20.9876 142.165 21.085 141.917 21.1576C141.67 21.2302 141.425 21.2666 141.182 21.2666C140.73 21.2666 140.334 21.2009 139.995 21.0704C139.655 20.9396 139.373 20.7236 139.147 20.4215C138.921 20.1197 138.751 19.7205 138.638 19.2238C138.525 18.7275 138.468 18.1106 138.468 17.3731V14.2025C138.468 14.0169 138.471 13.8282 138.476 13.6364C138.482 13.4446 138.501 13.2474 138.533 13.044L137.394 13.0965L137.394 12.3648H137.911C138.142 12.3648 138.342 12.3519 138.508 12.3256C138.676 12.2994 138.818 12.2633 138.936 12.217C139.055 12.1703 139.153 12.1195 139.231 12.0644C139.31 12.0092 139.381 11.9496 139.446 11.8859H139.922L139.922 17.3265C139.922 17.8439 139.955 18.2929 140.019 18.6737C140.083 19.0542 140.187 19.371 140.33 19.6237C140.473 19.8768 140.657 20.0628 140.883 20.182C141.11 20.3012 141.387 20.3609 141.715 20.3609C141.925 20.3609 142.131 20.3227 142.333 20.2471C142.535 20.1718 142.728 20.07 142.911 19.9419C143.094 19.8141 143.265 19.6687 143.424 19.5062C143.582 19.3434 143.719 19.1686 143.832 18.9826V18.2414V14.4045Z" fill="white"/>
<path d="M150.87 12.6433C150.676 12.6433 150.488 12.6709 150.305 12.7261C150.122 12.7812 149.947 12.8541 149.779 12.9441C149.613 13.034 149.455 13.1406 149.307 13.2622C149.159 13.3845 149.029 13.5122 148.915 13.6458C148.915 13.6924 148.917 13.7463 148.919 13.8072C148.922 13.8682 148.923 13.9714 148.923 14.1169V14.7317C148.923 14.996 148.922 15.3506 148.919 15.7955C148.917 16.24 148.914 16.7939 148.911 17.4564C148.908 18.1193 148.907 18.9212 148.907 19.863C149.182 20.0841 149.483 20.2554 149.812 20.3774C150.14 20.4997 150.485 20.5606 150.846 20.5606C151.239 20.5606 151.592 20.4588 151.904 20.2554C152.216 20.0521 152.483 19.7687 152.704 19.4052C152.925 19.0418 153.094 18.6115 153.213 18.1145C153.331 17.6176 153.39 17.0729 153.39 16.4798C153.39 15.9975 153.343 15.5264 153.249 15.0672C153.154 14.6081 153.007 14.1983 152.805 13.8379C152.603 13.4775 152.343 13.1883 152.025 12.9703C151.707 12.7523 151.323 12.6433 150.87 12.6433ZM147.502 14.2024C147.502 14.0167 147.504 13.8277 147.51 13.6362C147.515 13.4444 147.534 13.2472 147.567 13.0439L146.395 13.1137V12.3646C146.756 12.3646 147.049 12.3514 147.276 12.3255C147.502 12.2992 147.684 12.2631 147.821 12.2165C147.958 12.1701 148.064 12.119 148.14 12.0639C148.215 12.009 148.283 11.9494 148.342 11.8854H148.826C148.837 12.0015 148.848 12.1378 148.859 12.2948C148.869 12.4518 148.88 12.6344 148.891 12.8436C149.058 12.6865 149.243 12.5418 149.444 12.4082C149.646 12.2744 149.859 12.1613 150.083 12.0683C150.306 11.9756 150.533 11.9027 150.765 11.8506C150.997 11.7982 151.228 11.7723 151.46 11.7723C151.939 11.7723 152.398 11.8738 152.837 12.0771C153.276 12.2805 153.662 12.5721 153.996 12.9526C154.33 13.3327 154.597 13.7973 154.796 14.3461C154.995 14.8949 155.095 15.5145 155.095 16.2056C155.095 16.7108 155.042 17.187 154.937 17.6339C154.832 18.0815 154.685 18.492 154.497 18.8663C154.308 19.241 154.084 19.5762 153.823 19.8726C153.561 20.1686 153.275 20.42 152.962 20.626C152.65 20.8321 152.317 20.9902 151.964 21.1005C151.612 21.2109 151.25 21.2661 150.878 21.2661C150.114 21.2661 149.454 21.0716 148.899 20.6826L148.891 23.6352C148.891 23.8733 148.888 24.0838 148.883 24.2667C148.878 24.4497 148.859 24.6428 148.826 24.8462L149.869 24.7937V25.5254L146.492 25.5254V24.994C146.745 24.994 146.938 24.9402 147.07 24.8329C147.202 24.7252 147.296 24.576 147.352 24.3843C147.409 24.1925 147.441 23.9632 147.449 23.6962C147.458 23.4291 147.464 23.1358 147.469 22.8167L147.502 14.2024Z" fill="white"/>
</svg>
