<svg width="5" height="5" viewBox="0 0 5 5" fill="none" xmlns="http://www.w3.org/2000/svg">
<path d="M1.00364 0.717955C2.69772 0.765456 4.08922 1.88973 4.38741 3.5646C4.43822 3.85 4.45629 4.14172 4.4789 4.43142C4.48843 4.55323 4.4194 4.66897 4.28796 4.6706C4.15217 4.67223 4.09109 4.55856 4.08221 4.43685C4.06478 4.19579 4.05268 3.9536 4.01945 3.71461C3.84411 2.45258 2.8378 1.4085 1.58165 1.18447C1.39258 1.15075 1.19922 1.14191 1.00769 1.12181C0.886664 1.10912 0.728163 1.10181 0.701351 0.951311C0.678885 0.825153 0.785341 0.72472 0.905476 0.718252C0.938015 0.716326 0.970852 0.717856 1.00364 0.717955C2.69782 0.765456 0.970852 0.717856 1.00364 0.717955Z" fill="white"/>
</svg>
