<svg width="2" height="3" viewBox="0 0 2 3" fill="none" xmlns="http://www.w3.org/2000/svg">
<path d="M1.52435 2.01241C1.38263 2.01498 1.30679 1.93647 1.29212 1.80661C1.282 1.71605 1.2739 1.62421 1.25228 1.53602C1.20971 1.36236 1.11743 1.20149 0.971369 1.09508C0.902438 1.04487 0.824273 1.00828 0.742455 0.984575C0.638515 0.954505 0.530478 0.962801 0.426835 0.937421C0.314205 0.909819 0.251892 0.81857 0.269618 0.712952C0.285715 0.616766 0.379236 0.541712 0.48436 0.549366C1.14118 0.596768 1.61061 0.936334 1.67761 1.70958C1.6824 1.76414 1.68793 1.82176 1.67583 1.87406C1.655 1.96328 1.58883 2.00806 1.52435 2.01241C1.38258 2.01493 1.58883 2.00806 1.52435 2.01241Z" fill="white"/>
</svg>
