<svg width="14" height="16" viewBox="0 0 14 16" fill="none" xmlns="http://www.w3.org/2000/svg">
<path d="M13.687 4.43056L13.6829 4.41387C13.3451 3.04844 11.8224 1.58332 10.4241 1.27851L10.4083 1.27525C8.14654 0.843796 5.85322 0.843796 3.59194 1.27525L3.5757 1.27851C2.17783 1.58332 0.655087 3.04854 0.316903 4.41387L0.31315 4.43056C-0.104383 6.33736 -0.104383 8.27116 0.31315 10.178L0.316903 10.1947C0.640718 11.5018 2.04999 12.8996 3.39616 13.284V14.8082C3.39616 15.3599 4.06843 15.6308 4.45071 15.2327L5.99498 13.6275C6.32996 13.6462 6.66508 13.6567 7.0001 13.6567C8.13859 13.6567 9.27762 13.549 10.4083 13.3333L10.424 13.3301C11.8224 13.0253 13.3451 11.56 13.6828 10.1947L13.687 10.178C14.1045 8.27117 14.1045 6.33745 13.687 4.43056ZM12.4649 9.9015C12.2394 10.7923 11.0832 11.8997 10.1646 12.1044C8.96206 12.3331 7.7499 12.4308 6.53897 12.3973C6.51487 12.3966 6.49172 12.406 6.47498 12.4232C6.30309 12.5996 5.34745 13.5807 5.34745 13.5807L4.14818 14.8116C4.06048 14.9031 3.90643 14.8408 3.90643 14.7146V12.1897C3.90643 12.148 3.87665 12.1126 3.83567 12.1045C3.83542 12.1044 3.83522 12.1044 3.83498 12.1043C2.91636 11.8997 1.76064 10.7923 1.53474 9.90145C1.15893 8.17789 1.15893 6.43063 1.53474 4.70707C1.76064 3.81625 2.91636 2.70882 3.83498 2.5042C5.93528 2.10474 8.06482 2.10474 10.1647 2.5042C11.0837 2.70882 12.2394 3.81625 12.4649 4.70707C12.8411 6.43068 12.8411 8.17794 12.4649 9.9015Z" fill="white"/>
</svg>
