<svg width="8" height="8" viewBox="0 0 8 8" fill="none" xmlns="http://www.w3.org/2000/svg">
<path d="M5.99809 7.06955C5.85687 7.02664 5.72231 6.99785 5.59724 6.94605C4.30203 6.40868 3.11006 5.71543 2.16592 4.65278C1.62899 4.0485 1.20874 3.36626 0.85352 2.64426C0.685045 2.30188 0.543085 1.94612 0.398361 1.59258C0.266425 1.27025 0.460773 0.937245 0.665392 0.69431C0.85742 0.466335 1.10455 0.291935 1.37218 0.163307C1.58104 0.0629729 1.78705 0.120843 1.93962 0.29786C2.26936 0.680632 2.57234 1.08296 2.81755 1.52666C2.9684 1.79957 2.92702 2.13316 2.65362 2.31887C2.58715 2.364 2.52662 2.41703 2.46475 2.46799C2.41043 2.51267 2.35938 2.5578 2.32215 2.61829C2.25415 2.72895 2.2509 2.85955 2.29464 2.97988C2.63174 3.90625 3.19993 4.62666 4.13242 5.01471C4.28163 5.07678 4.43144 5.14902 4.60338 5.12902C4.89124 5.0954 4.98447 4.77958 5.18622 4.61461C5.38339 4.45339 5.63541 4.45127 5.84778 4.58568C6.06025 4.72018 6.26615 4.86446 6.47087 5.01037C6.67184 5.15356 6.87186 5.29355 7.05718 5.45684C7.23543 5.61381 7.29681 5.81971 7.19642 6.03267C7.01274 6.4228 6.74536 6.74726 6.35977 6.95445C6.2509 7.01281 6.12084 7.03172 5.99809 7.06955C5.85687 7.02664 6.12084 7.03172 5.99809 7.06955Z" fill="white"/>
</svg>
