<svg width="3" height="4" viewBox="0 0 3 4" fill="none" xmlns="http://www.w3.org/2000/svg">
<path d="M2.57811 3.05519C2.5753 3.07637 2.57386 3.12609 2.56142 3.1729C2.51649 3.34296 2.25854 3.36424 2.19924 3.19265C2.18161 3.14175 2.179 3.08378 2.1789 3.02897C2.1783 2.67019 2.10034 2.31172 1.91937 1.9995C1.73337 1.6786 1.44915 1.40895 1.1159 1.24566C0.914345 1.14701 0.696444 1.08563 0.47553 1.04914C0.378998 1.03314 0.281428 1.02351 0.184402 1.00998C0.066835 0.993641 0.00402706 0.918736 0.00965606 0.802897C0.0148407 0.694366 0.09419 0.616202 0.212498 0.622966C0.601245 0.644988 0.976807 0.729127 1.3225 0.912119C2.02533 1.28437 2.42687 1.87186 2.54409 2.65642C2.54937 2.69202 2.55787 2.72718 2.56058 2.76283C2.5672 2.85082 2.5714 2.93895 2.57811 3.05519C2.5753 3.07627 2.5714 2.93895 2.57811 3.05519Z" fill="white"/>
</svg>
