<svg width="55" height="36" viewBox="0 0 55 36" fill="none" xmlns="http://www.w3.org/2000/svg">
<path d="M9.9 9.5H11.9V6.67321L9.23436 7.61402L9.9 9.5ZM6.85 10.3L7.25079 12.2594L7.27207 12.2551L7.29324 12.2503L6.85 10.3ZM3.4 10.9L1.42425 11.2105L1.72361 13.1155L3.63829 12.8858L3.4 10.9ZM2.85 7.4L2.45079 5.44025L0.577462 5.82185L0.874246 7.71048L2.85 7.4ZM8.45 5.45L9.3195 7.2511L9.32588 7.24802L9.33224 7.2449L8.45 5.45ZM13.25 2.45V0.449998H12.5229L11.9656 0.916957L13.25 2.45ZM13.3 2.45L13.5758 0.469109L13.4386 0.449998H13.3V2.45ZM17.25 3H19.25V1.25919L17.5258 1.01911L17.25 3ZM17.25 30.5H15.25V32.3163L17.0579 32.4908L17.25 30.5ZM22.95 31.05H24.95V29.2337L23.1421 29.0592L22.95 31.05ZM22.95 34V36H24.95V34H22.95ZM3.9 34H1.9V36H3.9V34ZM3.9 31.05L3.73391 29.0569L1.9 29.2097V31.05H3.9ZM9.9 30.55L10.0661 32.5431L11.9 32.3903V30.55H9.9ZM9.23436 7.61402C8.78972 7.77095 7.87677 8.01564 6.40676 8.34973L7.29324 12.2503C8.75656 11.9177 9.87695 11.629 10.5656 11.386L9.23436 7.61402ZM6.44921 8.34057C5.00174 8.63664 3.91414 8.82395 3.16171 8.91425L3.63829 12.8858C4.55253 12.776 5.76493 12.5634 7.25079 12.2594L6.44921 8.34057ZM5.37575 10.5895L4.82575 7.08952L0.874246 7.71048L1.42425 11.2105L5.37575 10.5895ZM3.24921 9.35975C5.23657 8.95492 7.26105 8.24483 9.3195 7.2511L7.5805 3.64889C5.77228 4.52183 4.06343 5.11174 2.45079 5.44025L3.24921 9.35975ZM9.33224 7.2449C11.3949 6.23103 13.1428 5.14898 14.5344 3.98304L11.9656 0.916957C10.8905 1.81768 9.4384 2.73564 7.56776 3.6551L9.33224 7.2449ZM13.25 4.45H13.3V0.449998H13.25V4.45ZM13.0242 4.43089L16.9742 4.98089L17.5258 1.01911L13.5758 0.469109L13.0242 4.43089ZM15.25 3V30.5H19.25V3H15.25ZM17.0579 32.4908L22.7579 33.0408L23.1421 29.0592L17.4421 28.5092L17.0579 32.4908ZM20.95 31.05V34H24.95V31.05H20.95ZM22.95 32H3.9V36H22.95V32ZM5.9 34V31.05H1.9V34H5.9ZM4.06609 33.0431L10.0661 32.5431L9.73391 28.5569L3.73391 29.0569L4.06609 33.0431ZM11.9 30.55V9.5H7.9V30.55H11.9ZM25.8004 31.3L24.7842 29.5774L23.3204 30.4409L23.9364 32.0249L25.8004 31.3ZM37.2004 22.25L35.7131 20.9129L37.2004 22.25ZM40.1004 8.8L38.6862 10.2142L38.7097 10.2378L38.7341 10.2605L40.1004 8.8ZM31.4504 8.3L32.4046 10.0577L32.4131 10.0531L32.4217 10.0483L31.4504 8.3ZM28.0004 10.8L26.3549 11.9369L27.6562 13.8203L29.3479 12.2779L28.0004 10.8ZM26.1004 8.05L24.5387 6.80061L23.6091 7.96259L24.4549 9.18686L26.1004 8.05ZM28.9504 5.5L27.821 3.84938L27.8107 3.85643L27.8005 3.86361L28.9504 5.5ZM33.3504 3.35L33.9942 5.24354L34.0111 5.23781L34.0278 5.23177L33.3504 3.35ZM44.5004 3.7L43.5914 5.48152L43.5987 5.48522L43.606 5.48885L44.5004 3.7ZM48.2004 7L49.9264 5.98964L48.2004 7ZM44.8004 21.2L43.3493 19.8237L44.8004 21.2ZM33.1004 30.1L32.1094 28.3628L33.2858 32.0914L33.1004 30.1ZM47.6004 28.75L47.7858 30.7414L48.9434 30.6336L49.4226 29.5743L47.6004 28.75ZM49.5004 24.55L49.9046 22.5913L48.3376 22.2679L47.6782 23.7257L49.5004 24.55ZM52.6504 25.2L54.6238 25.5252L54.9361 23.6295L53.0546 23.2413L52.6504 25.2ZM51.2004 34V36H52.8978L53.1738 34.3252L51.2004 34ZM26.8504 34L24.9864 34.7249L25.4823 36H26.8504V34ZM26.8166 33.0226C31.5897 30.2068 35.5592 27.0671 38.6877 23.5871L35.7131 20.9129C32.9082 24.0329 29.2777 26.9266 24.7842 29.5774L26.8166 33.0226ZM38.6877 23.5871C41.8389 20.0819 43.6504 16.4417 43.6504 12.7H39.6504C39.6504 15.0916 38.4952 17.8181 35.7131 20.9129L38.6877 23.5871ZM43.6504 12.7C43.6504 10.6066 42.9679 8.74377 41.4667 7.33946L38.7341 10.2605C39.2996 10.7896 39.6504 11.5267 39.6504 12.7H43.6504ZM41.5146 7.38579C40.0376 5.90879 38.0501 5.3 35.8504 5.3V9.3C37.3173 9.3 38.1632 9.69121 38.6862 10.2142L41.5146 7.38579ZM35.8504 5.3C33.8648 5.3 32.0444 5.68206 30.4791 6.55169L32.4217 10.0483C33.2564 9.5846 34.3693 9.3 35.8504 9.3V5.3ZM30.4962 6.54229C29.1677 7.26349 27.8875 8.19638 26.6529 9.32209L29.3479 12.2779C30.3799 11.337 31.3998 10.6032 32.4046 10.0577L30.4962 6.54229ZM29.6459 9.66314L27.7459 6.91313L24.4549 9.18686L26.3549 11.9369L29.6459 9.66314ZM27.6621 9.29939C28.173 8.66082 28.9635 7.9352 30.1003 7.13638L27.8005 3.86361C26.4706 4.79813 25.3611 5.77251 24.5387 6.80061L27.6621 9.29939ZM30.0798 7.15061C31.1762 6.40039 32.475 5.76009 33.9942 5.24354L32.7066 1.45645C30.8925 2.07325 29.2579 2.86628 27.821 3.84938L30.0798 7.15061ZM34.0278 5.23177C35.4864 4.70667 36.9409 4.45 38.4004 4.45V0.449998C36.4598 0.449998 34.5477 0.793322 32.673 1.46822L34.0278 5.23177ZM38.4004 4.45C40.6168 4.45 42.3163 4.83092 43.5914 5.48152L45.4093 1.91848C43.4178 0.90241 41.0506 0.449998 38.4004 0.449998V4.45ZM43.606 5.48885C44.9882 6.17999 45.9027 7.03384 46.4744 8.01036L49.9264 5.98964C48.898 4.23282 47.3459 2.88667 45.3948 1.91115L43.606 5.48885ZM46.4744 8.01036C47.0854 9.05422 47.4004 10.2191 47.4004 11.55H51.4004C51.4004 9.54759 50.9154 7.67911 49.9264 5.98964L46.4744 8.01036ZM47.4004 11.55C47.4004 14.0658 46.2031 16.8148 43.3493 19.8237L46.2515 22.5763C49.531 19.1186 51.4004 15.4342 51.4004 11.55H47.4004ZM43.3493 19.8237C40.4436 22.8873 36.7089 25.7391 32.1094 28.3628L34.0914 31.8372C38.9585 29.0609 43.0239 25.9794 46.2515 22.5763L43.3493 19.8237ZM33.2858 32.0914L47.7858 30.7414L47.415 26.7586L32.915 28.1086L33.2858 32.0914ZM49.4226 29.5743L51.3226 25.3743L47.6782 23.7257L45.7782 27.9257L49.4226 29.5743ZM49.0962 26.5087L52.2462 27.1587L53.0546 23.2413L49.9046 22.5913L49.0962 26.5087ZM50.677 24.8748L49.227 33.6748L53.1738 34.3252L54.6238 25.5252L50.677 24.8748ZM51.2004 32H26.8504V36H51.2004V32ZM28.7144 33.2751L27.6644 30.5751L23.9364 32.0249L24.9864 34.7249L28.7144 33.2751Z" fill="#F7D323"/>
</svg>
