<svg width="181" height="283" viewBox="0 0 181 283" fill="none" xmlns="http://www.w3.org/2000/svg">
<path d="M49.9258 140.853C50.0107 140.7 50.1882 140.392 50.4442 139.948C51.414 138.265 53.5099 134.627 55.9626 130.061L57.8158 130.768C56.9227 134.48 55.7317 138.949 53.9582 143.509C79.2468 126.738 110.737 114.944 143.03 112.888C145.695 111.158 148.401 107.176 151.042 100.637C145.868 95.1092 141.443 90.7007 137.763 87.4036C133.964 83.9991 131.018 81.8345 128.899 80.8231L128.184 80.482L128.352 79.7082C128.694 78.1368 128.484 76.7801 127.855 75.5725C127.214 74.3445 126.108 73.212 124.566 72.1775C121.468 70.0978 116.824 68.5528 111.495 67.4222C100.865 65.1671 87.9438 64.6447 80.4115 64.49L80.1418 64.4845L79.9115 64.3441L75.7315 61.7955C75.7314 61.7955 75.7314 61.7955 75.7314 61.7954C74.7446 61.194 73.4152 60.9735 71.9253 61.0977C70.4445 61.2211 68.8927 61.6792 67.5478 62.3292C66.1891 62.9859 65.1294 63.7955 64.5581 64.5591C64.2757 64.9366 64.1479 65.2553 64.1165 65.5018C64.0883 65.7236 64.1304 65.9309 64.2876 66.1536L64.2878 66.154C66.8803 69.8312 68.8229 71.4789 70.6609 73.0378C71.4162 73.6785 72.1539 74.3042 72.9117 75.0495L71.802 76.6753C61.498 72.0643 50.4291 70.0973 41.9112 69.2878C37.6572 68.8835 34.0514 68.7689 31.5119 68.7554C30.2424 68.7486 29.2401 68.767 28.5573 68.7871C28.2159 68.7971 27.9544 68.8075 27.7795 68.8153C27.692 68.8192 27.6261 68.8225 27.5827 68.8248L27.5345 68.8274L27.5232 68.828L27.5208 68.8281L27.5206 68.8282L27.5205 68.8282L27.4749 68.8309L27.4292 68.8294C11.5027 68.3129 -2.34755 72.6594 -12.5502 77.2273C-17.6493 79.5103 -21.8306 81.8454 -24.9004 83.6514C-25.831 84.1989 -26.6347 84.6828 -27.3422 85.1087C-27.8221 85.3977 -28.2578 85.66 -28.6588 85.8974C-29.1387 86.1816 -29.557 86.4227 -29.9007 86.6041C-30.2163 86.7706 -30.5599 86.9372 -30.8564 87.0076L-30.8567 87.0077L34.9632 160.205L34.1882 159.573C34.5029 159.187 35.2667 158.398 36.2561 157.375C36.3962 157.231 36.5408 157.081 36.6893 156.927C37.9133 155.661 39.4602 154.052 41.0928 152.265C44.3749 148.671 47.9387 144.427 49.9258 140.853ZM49.9258 140.853L50.8003 141.338L49.9263 140.852C49.9261 140.853 49.926 140.853 49.9258 140.853ZM56.8435 130.534L55.8713 130.3C55.5838 131.495 55.2666 132.762 54.9104 134.081C55.5178 132.982 56.1678 131.792 56.8435 130.534ZM56.8435 130.534L57.7245 131.007C57.0695 132.227 56.4374 133.384 55.8442 134.458C56.2167 133.086 56.5463 131.769 56.8435 130.534ZM72.2105 75.7625C71.5195 75.0828 70.8181 74.4875 70.0833 73.8638C70.0148 73.8057 69.9461 73.7473 69.8771 73.6886C70.795 74.0561 71.7097 74.4428 72.619 74.8497L72.2105 75.7625ZM72.2105 75.7625L71.5093 76.4754C70.8826 75.859 70.2185 75.2951 69.5067 74.6907C69.4529 74.6449 69.3988 74.599 69.3444 74.5527C70.3042 74.9345 71.2605 75.3374 72.2105 75.7625ZM-41.4351 236.171L-41.1506 235.212L-43.2812 234.58C-42.6703 235.117 -42.0548 235.648 -41.4351 236.171ZM-41.4351 236.171L-42.0801 236.935C-42.6491 236.455 -43.2144 235.969 -43.776 235.476L-41.4351 236.171ZM-52.7465 232.815C-52.6707 233.182 -52.5882 233.554 -52.4992 233.931L-52.7465 232.815ZM-52.7465 232.815L-53.8302 232.493L-52.7465 232.815ZM-7.09363 176.558C-8.936 174.746 -11.2229 172.934 -13.2491 171.699L-14.5173 173.217C-10.9606 177.225 -8.36692 181.575 -6.13714 185.579C-0.112618 196.4 1.1818 203.769 0.887155 209.735C0.738788 212.74 0.186305 215.424 -0.413717 218.083C-0.4846 218.397 -0.556275 218.712 -0.628054 219.026C-1.15962 221.357 -1.69671 223.712 -1.95342 226.2C-2.52718 231.756 -1.76904 235.049 -0.0678151 237.121C1.45833 238.98 3.6323 239.674 5.51005 240.273C5.68873 240.33 5.86472 240.387 6.03722 240.443C8.10979 241.119 9.8538 241.827 11.0115 243.721C12.1651 245.607 12.8461 248.859 12.2152 254.868C-2.70771 263.316 -17.8803 267.789 -33.3089 268.322L-3.90828 124.031C-4.60343 125.448 -5.22181 126.907 -5.79412 128.379C-7.00754 131.663 -7.93468 135.062 -8.56116 138.515L-9.54502 138.336C-9.54504 138.336 -9.54507 138.336 -9.5451 138.336C-10.8199 145.347 -11.0089 152.53 -10.3423 159.585L-10.3415 159.593L-10.3405 159.601C-10.3087 159.887 -10.2779 160.181 -10.2467 160.478C-10.186 161.057 -10.1238 161.65 -10.049 162.231L-10.0478 162.24L-9.68745 164.842L-9.68519 164.859L-9.6824 164.875C-9.64272 165.105 -9.6032 165.337 -9.56356 165.569C-9.3092 167.058 -9.04978 168.576 -8.71015 170.078C-8.23929 172.253 -7.70635 174.416 -7.09363 176.558ZM-7.09363 176.558C-6.89046 177.268 -6.67852 177.975 -6.45716 178.68C-6.102 179.086 -5.78335 179.481 -5.51081 179.857C-5.4572 179.932 -5.40396 180.006 -5.35111 180.08M11.1111 218.741C9.63349 219.677 8.42445 220.221 6.72658 220.624C6.86905 220.249 7.00381 219.87 7.1299 219.487M11.1111 218.741L1.1388 191.744C1.30273 192.142 1.45034 192.528 1.59776 192.913C1.62384 192.981 1.64993 193.049 1.67608 193.118C1.90234 194.127 2.13191 195.154 2.33187 196.232C2.81085 198.809 3.76219 201.099 4.71487 203.393C5.48095 205.237 6.24791 207.083 6.77084 209.083C7.70551 212.659 7.20107 216.336 5.97694 219.766C6.39028 219.68 6.77094 219.588 7.1299 219.487M11.1111 218.741C11.1028 218.548 11.0941 218.35 11.085 218.142L12.084 218.098L12.6487 218.923C12.4733 219.043 12.3023 219.158 12.1348 219.269C12.1368 219.315 12.1387 219.36 12.1407 219.405C12.1435 219.472 12.1464 219.538 12.1493 219.605C12.4899 219.431 12.8165 219.26 13.1279 219.088M11.1111 218.741L17.8843 214.956M7.1299 219.487C8.24593 216.1 8.68127 212.438 7.73835 208.83L7.7383 208.83C7.19671 206.759 6.40209 204.847 5.6386 203.01C5.545 202.784 5.45188 202.56 5.35974 202.337C4.50646 200.271 3.72646 198.263 3.31503 196.049C3.11124 194.951 2.87771 193.906 2.65187 192.899L2.63592 192.828L2.60981 192.76C2.58434 192.693 2.55877 192.626 2.53303 192.559C2.38997 192.185 2.24181 191.797 2.07842 191.399M7.1299 219.487C8.70097 219.042 9.85663 218.41 11.5193 217.273L13.004 216.256L13.083 218.054C13.0971 218.374 13.1124 218.728 13.1279 219.088M2.07842 191.399C1.80031 190.539 1.53047 189.683 1.27674 188.823L1.27267 188.81L1.26821 188.796C0.932544 187.768 0.63693 186.748 0.336413 185.711C0.164307 185.117 -0.00941183 184.518 -0.193169 183.908L-0.862905 181.447L-0.862975 181.447L-1.19598 180.222L-1.4997 178.99L-1.50207 178.981C-2.34458 175.705 -3.04218 172.397 -3.64195 169.073C-4.23998 165.754 -4.71903 162.422 -5.01888 159.083L-5.01921 159.08C-5.64471 152.394 -5.68936 145.669 -4.96414 139.007L2.07842 191.399ZM2.07842 191.399L23.5399 190.677L22.5942 190.352C21.1184 194.649 19.5976 198.893 17.9038 203.091C17.3923 204.359 17.0914 205.34 16.9648 206.365C16.8392 207.383 16.8925 208.391 17.0172 209.687M13.1279 219.088C15.1062 217.996 16.4691 216.869 16.9046 214.755M13.1279 219.088C13.1319 219.18 13.1359 219.272 13.1398 219.364C13.152 219.647 13.1642 219.93 13.1759 220.199C15.4361 219.006 17.3246 217.674 17.8843 214.956M16.9046 214.755C17.2193 213.22 17.1747 211.344 17.0172 209.687M16.9046 214.755C16.9047 214.755 16.9048 214.755 16.9048 214.754L17.8843 214.956M16.9046 214.755L17.8843 214.956M17.0172 209.687C17.0171 209.686 17.0171 209.686 17.0171 209.686L18.0126 209.591L17.0172 209.687Z" stroke="#9AB4C1" stroke-width="2"/>
</svg>
