<svg width="52" height="30" viewBox="0 0 52 30" fill="none" xmlns="http://www.w3.org/2000/svg">
<path d="M6.20117 8H4.8584L3.07129 5.08008L1.26953 8H0.0195312L2.3877 4.29883L0.170898 0.861328H1.46973L3.12012 3.56152L4.77051 0.861328H6.03027L3.79883 4.31836L6.20117 8ZM7.16309 0.861328H9.28223C10.2653 0.861328 10.9749 1.00456 11.4111 1.29102C11.8506 1.57747 12.0703 2.02995 12.0703 2.64844C12.0703 3.0651 11.9629 3.41178 11.748 3.68848C11.5332 3.96517 11.224 4.13932 10.8203 4.21094V4.25977C11.3216 4.35417 11.6895 4.54134 11.9238 4.82129C12.1615 5.09798 12.2803 5.47396 12.2803 5.94922C12.2803 6.59049 12.0557 7.09342 11.6064 7.45801C11.1605 7.81934 10.5387 8 9.74121 8H7.16309V0.861328ZM8.33008 3.81055H9.45312C9.94141 3.81055 10.2979 3.73405 10.5225 3.58105C10.7471 3.4248 10.8594 3.16113 10.8594 2.79004C10.8594 2.45475 10.7373 2.21224 10.4932 2.0625C10.2523 1.91276 9.86816 1.83789 9.34082 1.83789H8.33008V3.81055ZM8.33008 4.75781V7.01855H9.57031C10.0586 7.01855 10.4264 6.92578 10.6738 6.74023C10.9245 6.55143 11.0498 6.25521 11.0498 5.85156C11.0498 5.48047 10.9229 5.2054 10.6689 5.02637C10.415 4.84733 10.0293 4.75781 9.51172 4.75781H8.33008ZM13.7646 0.861328H14.834V4.57227C14.834 4.95964 14.8242 5.35189 14.8047 5.74902C14.7852 6.1429 14.7705 6.40983 14.7607 6.5498H14.8047L18.4521 0.861328H19.8145V8H18.7402V4.31836C18.7402 3.75521 18.7712 3.07161 18.833 2.26758H18.7939L15.1318 8H13.7646V0.861328ZM27.041 8H25.874V1.8623H23.8428C23.5856 3.94564 23.3789 5.36328 23.2227 6.11523C23.0697 6.86719 22.8532 7.39128 22.5732 7.6875C22.2933 7.98047 21.9222 8.12207 21.46 8.1123C21.2223 8.1123 20.9961 8.07161 20.7812 7.99023V7.01855C20.9668 7.09993 21.1475 7.14062 21.3232 7.14062C21.5576 7.14062 21.7399 7.00065 21.8701 6.7207C22.0036 6.4375 22.1484 5.81413 22.3047 4.85059C22.4642 3.88704 22.653 2.55729 22.8711 0.861328H27.041V8ZM28.9307 0.861328H30V4.57227C30 4.95964 29.9902 5.35189 29.9707 5.74902C29.9512 6.1429 29.9365 6.40983 29.9268 6.5498H29.9707L33.6182 0.861328H34.9805V8H33.9062V4.31836C33.9062 3.75521 33.9372 3.07161 33.999 2.26758H33.96L30.2979 8H28.9307V0.861328ZM42.4805 8H41.3086V4.78223H38.0176V8H36.8506V0.861328H38.0176V3.78125H41.3086V0.861328H42.4805V8ZM0.0585938 26.999H0.610352C1.08236 26.1364 1.47786 25.168 1.79688 24.0938C2.11589 23.0195 2.32096 21.9421 2.41211 20.8613H6.09863V26.999H7.02148V29.9678H5.89844V28H1.18164V29.9678H0.0585938V26.999ZM3.38867 21.8721C3.31706 22.611 3.13477 23.4688 2.8418 24.4453C2.54883 25.4186 2.21517 26.2699 1.84082 26.999H4.93164V21.8721H3.38867ZM14.5166 24.4209C14.5166 25.583 14.2253 26.4863 13.6426 27.1309C13.0632 27.7754 12.2412 28.0977 11.1768 28.0977C10.0993 28.0977 9.27083 27.7786 8.69141 27.1406C8.11523 26.4993 7.82715 25.5895 7.82715 24.4111C7.82715 23.2327 8.11686 22.3278 8.69629 21.6963C9.27897 21.0648 10.109 20.749 11.1865 20.749C12.2477 20.749 13.068 21.0697 13.6475 21.7109C14.2269 22.3522 14.5166 23.2555 14.5166 24.4209ZM9.06738 24.4209C9.06738 25.2998 9.24479 25.9671 9.59961 26.4229C9.95443 26.8753 10.4801 27.1016 11.1768 27.1016C11.8701 27.1016 12.3926 26.877 12.7441 26.4277C13.099 25.9785 13.2764 25.3096 13.2764 24.4209C13.2764 23.5452 13.1006 22.8812 12.749 22.4287C12.4007 21.9762 11.8799 21.75 11.1865 21.75C10.4867 21.75 9.95768 21.9762 9.59961 22.4287C9.24479 22.8812 9.06738 23.5452 9.06738 24.4209ZM21.7334 28L19.6631 22.0381H19.624C19.6794 22.9235 19.707 23.7536 19.707 24.5283V28H18.6475V20.8613H20.293L22.2754 26.54H22.3047L24.3457 20.8613H25.9961V28H24.873V24.4697C24.873 24.1149 24.8812 23.6527 24.8975 23.083C24.917 22.5133 24.9333 22.1683 24.9463 22.0479H24.9072L22.7637 28H21.7334ZM31.9141 28H27.876V20.8613H31.9141V21.8477H29.043V23.791H31.7334V24.7676H29.043V27.0088H31.9141V28ZM35.9277 28H34.7607V21.8623H32.6611V20.8613H38.0273V21.8623H35.9277V28ZM43.8525 23.0195C43.8525 23.765 43.6084 24.3363 43.1201 24.7334C42.6318 25.1305 41.9368 25.3291 41.0352 25.3291H40.293V28H39.126V20.8613H41.1816C42.0736 20.8613 42.7409 21.0436 43.1836 21.4082C43.6296 21.7728 43.8525 22.3099 43.8525 23.0195ZM40.293 24.3477H40.9131C41.512 24.3477 41.9515 24.2435 42.2314 24.0352C42.5114 23.8268 42.6514 23.5013 42.6514 23.0586C42.6514 22.6484 42.526 22.3424 42.2754 22.1406C42.0247 21.9388 41.6341 21.8379 41.1035 21.8379H40.293V24.3477ZM51.6162 24.4209C51.6162 25.583 51.3249 26.4863 50.7422 27.1309C50.1628 27.7754 49.3408 28.0977 48.2764 28.0977C47.1989 28.0977 46.3704 27.7786 45.791 27.1406C45.2148 26.4993 44.9268 25.5895 44.9268 24.4111C44.9268 23.2327 45.2165 22.3278 45.7959 21.6963C46.3786 21.0648 47.2087 20.749 48.2861 20.749C49.3473 20.749 50.1676 21.0697 50.7471 21.7109C51.3265 22.3522 51.6162 23.2555 51.6162 24.4209ZM46.167 24.4209C46.167 25.2998 46.3444 25.9671 46.6992 26.4229C47.054 26.8753 47.5798 27.1016 48.2764 27.1016C48.9697 27.1016 49.4922 26.877 49.8438 26.4277C50.1986 25.9785 50.376 25.3096 50.376 24.4209C50.376 23.5452 50.2002 22.8812 49.8486 22.4287C49.5003 21.9762 48.9795 21.75 48.2861 21.75C47.5863 21.75 47.0573 21.9762 46.6992 22.4287C46.3444 22.8812 46.167 23.5452 46.167 24.4209Z" fill="white"/>
</svg>
