<svg width="14" height="14" viewBox="0 0 14 14" fill="none" xmlns="http://www.w3.org/2000/svg">
<g clip-path="url(#clip0)">
<path d="M13.8053 11.6415L11.8314 13.5995C11.5401 13.8983 11.1539 13.9995 10.7778 14C9.11443 13.9502 7.5422 13.1331 6.25131 12.2942C4.13239 10.7526 2.18818 8.84123 0.967966 6.53137C0.499969 5.56277 -0.0491577 4.32691 0.00330733 3.24577C0.00798566 2.83907 0.117582 2.43992 0.404011 2.17777L2.37785 0.204923C2.78772 -0.143712 3.1841 -0.0231716 3.44639 0.382922L5.03435 3.39411C5.20148 3.75084 5.10561 4.13307 4.85624 4.38797L4.12904 5.1148C4.08414 5.1763 4.05556 5.2463 4.05484 5.32248C4.33369 6.40191 5.17849 7.3968 5.92478 8.08149C6.67106 8.76618 7.47324 9.6938 8.51451 9.9134C8.64322 9.9493 8.80087 9.96191 8.89296 9.87631L9.73891 9.01597C10.0305 8.79495 10.4516 8.68692 10.7629 8.86765H10.7777L13.642 10.5586C14.0625 10.8222 14.1063 11.3316 13.8053 11.6415Z" fill="#F7D323"/>
</g>
<defs>
<clipPath id="clip0">
</clipPath>
</defs>
</svg>
