<svg width="15" height="14" viewBox="0 0 15 14" fill="none" xmlns="http://www.w3.org/2000/svg">
<path d="M0.455623 6.44807L3.69461 7.77041L4.9483 12.1807C5.02852 12.4631 5.34428 12.5675 5.55387 12.3801L7.35934 10.7701C7.54859 10.6014 7.81815 10.593 8.01593 10.7501L11.2724 13.3362C11.4966 13.5144 11.8142 13.38 11.8704 13.0837L14.2559 0.532094C14.3173 0.208374 14.0265 -0.0616819 13.7447 0.0575345L0.451827 5.6668C0.123786 5.80519 0.126644 6.31322 0.455623 6.44807ZM4.74625 7.06649L11.0764 2.80182C11.1902 2.7254 11.3073 2.89366 11.2096 2.99279L5.98532 8.30474C5.80169 8.49171 5.68324 8.74193 5.64969 9.01353L5.47173 10.4561C5.44816 10.6487 5.20081 10.6678 5.15222 10.4814L4.46779 7.85083C4.3894 7.55079 4.50363 7.2303 4.74625 7.06649Z" fill="white"/>
</svg>
