<svg version="1.1" viewBox="0 0 14 14.471" xmlns="http://www.w3.org/2000/svg">
 <path d="m13.687 3.4789-0.0041-0.01669c-0.3378-1.3654-1.8605-2.8306-3.2588-3.1354l-0.0158-0.00326c-2.2618-0.43145-4.5551-0.43145-6.8164 0l-0.01624 0.00326c-1.3979 0.30481-2.9206 1.77-3.2588 3.1354l-0.003753 0.01669c-0.41753 1.9068-0.41753 3.8406 0 5.7474l0.003753 0.0167c0.32382 1.3071 1.7331 2.7049 3.0793 3.0893v1.5242c0 0.5517 0.67227 0.8226 1.0545 0.4245l1.5443-1.6052c0.33498 0.0187 0.6701 0.0292 1.0051 0.0292 1.1385 0 2.2775-0.1077 3.4082-0.3234l0.0157-0.0032c1.3984-0.3048 2.9211-1.7701 3.2588-3.1354l0.0042-0.0167c0.4175-1.9068 0.4175-3.8406 0-5.7474zm-1.2221 5.4709c-0.2255 0.8908-1.3817 1.9982-2.3003 2.2029-1.2025 0.2287-2.4147 0.3264-3.6256 0.2929-0.0241-7e-4 -0.04725 0.0087-0.06399 0.0259-0.17189 0.1764-1.1275 1.1575-1.1275 1.1575l-1.1993 1.2309c-0.0877 0.0915-0.24175 0.0292-0.24175-0.097v-2.5249c0-0.0417-0.02978-0.0771-0.07076-0.0852-2.5e-4 -1e-4 -4.5e-4 -1e-4 -6.9e-4 -2e-4 -0.91862-0.2046-2.0743-1.312-2.3002-2.2029-0.37581-1.7236-0.37581-3.4708 0-5.1944 0.2259-0.89082 1.3816-1.9982 2.3002-2.2029 2.1003-0.39946 4.2298-0.39946 6.3297 0 0.919 0.20462 2.0747 1.312 2.3002 2.2029 0.3762 1.7236 0.3762 3.4709 0 5.1944z" fill="#fff"/>
 <g fill="none">
  <g transform="translate(2.9119 3.1175)">
   <path d="m5.9981 7.0696c-0.14122-0.04291-0.27578-0.0717-0.40085-0.1235-1.2952-0.53737-2.4872-1.2306-3.4313-2.2933-0.53693-0.60428-0.95718-1.2865-1.3124-2.0085-0.16848-0.34238-0.31044-0.69814-0.45516-1.0517-0.13194-0.32233 0.062412-0.65534 0.26703-0.89827 0.19203-0.22798 0.43916-0.40238 0.70679-0.531 0.20886-0.10033 0.41487-0.042464 0.56744 0.13455 0.32974 0.38277 0.63272 0.7851 0.87793 1.2288 0.15085 0.27291 0.10947 0.6065-0.16393 0.79221-0.06647 0.04513-0.127 0.09816-0.18887 0.14912-0.05432 0.04468-0.10537 0.08981-0.1426 0.1503-0.068 0.11066-0.07125 0.24126-0.02751 0.36159 0.3371 0.92637 0.90529 1.6468 1.8378 2.0348 0.14921 0.06207 0.29902 0.13431 0.47096 0.11431 0.28786-0.03362 0.38109-0.34944 0.58284-0.51441 0.19717-0.16122 0.44919-0.16334 0.66156-0.02893 0.21247 0.1345 0.41837 0.27878 0.62309 0.42469 0.20097 0.14319 0.40099 0.28318 0.58631 0.44647 0.17825 0.15697 0.23963 0.36287 0.13924 0.57583-0.18368 0.39013-0.45106 0.71459-0.83665 0.92178-0.10887 0.05836-0.23893 0.07727-0.36168 0.1151-0.14122-0.04291 0.12275-0.03783 0 0z" fill="#fff"/>
  </g>
  <g transform="translate(6.6313 1.6425)">
   <path d="m1.0036 0.71796c1.6941 0.047501 3.0856 1.1718 3.3838 2.8466 0.05081 0.2854 0.06888 0.57712 0.09149 0.86682 0.00953 0.12181-0.0595 0.23755-0.19094 0.23918-0.13579 0.00163-0.19687-0.11204-0.20575-0.23375-0.01743-0.24106-0.02953-0.48325-0.06276-0.72224-0.17534-1.262-1.1816-2.3061-2.4378-2.5301-0.18907-0.03372-0.38243-0.04256-0.57396-0.06266-0.12103-0.01269-0.27953-0.02-0.30634-0.1705-0.022466-0.12616 0.08399-0.22659 0.20412-0.23306 0.032539-0.001926 0.065376-3.96e-4 0.098164-2.97e-4 1.6942 0.047501-0.032788-9.9e-5 0 0z" fill="#fff"/>
  </g>
  <g transform="translate(7.3165 2.8441)">
   <path d="m2.5781 3.0552c-0.00281 0.02118-0.00425 0.0709-0.01669 0.11771-0.04493 0.17006-0.30288 0.19134-0.36218 0.01975-0.01763-0.0509-0.02024-0.10887-0.02034-0.16368-6e-4 -0.35878-0.07856-0.71725-0.25953-1.0295-0.186-0.3209-0.47022-0.59055-0.80347-0.75384-0.20156-0.09865-0.41946-0.16003-0.64037-0.19652-0.096532-0.016-0.1941-0.02563-0.29113-0.03916-0.11757-0.016339-0.18037-0.091244-0.17475-0.20708 0.0051846-0.10853 0.084534-0.1867 0.20284-0.17993 0.38875 0.022022 0.76431 0.10616 1.11 0.28915 0.70283 0.37225 1.1044 0.95974 1.2216 1.7443 0.00528 0.0356 0.01378 0.07076 0.01649 0.10641 0.00662 0.08799 0.01082 0.17612 0.01753 0.29236-0.00281 0.02108-0.00671-0.11624 0 0z" fill="#fff"/>
  </g>
  <g transform="translate(7.0929 4.0725)">
   <path d="m1.5244 2.0124c-0.14172 0.00257-0.21756-0.07594-0.23223-0.2058-0.01012-0.09056-0.01822-0.1824-0.03984-0.27059-0.04257-0.17366-0.13485-0.33453-0.28091-0.44094-0.068931-0.05021-0.1471-0.0868-0.22891-0.1105-0.10394-0.03007-0.21198-0.021774-0.31562-0.047154-0.11263-0.027602-0.17494-0.11885-0.15722-0.22447 0.016097-0.096186 0.10962-0.17124 0.21474-0.16359 0.65682 0.047402 1.1262 0.38697 1.1932 1.1602 0.00479 0.05456 0.01032 0.11218-0.00178 0.16448-0.02083 0.08922-0.087 0.134-0.15148 0.13835-0.14177 0.00252 0.06448-0.00435 0 0z" fill="#fff"/>
  </g>
 </g>
</svg>
