<svg width="473.49mm" height="292.87mm" version="1.1" viewBox="0 0 473.49 292.87" xmlns="http://www.w3.org/2000/svg" xmlns:xlink="http://www.w3.org/1999/xlink">
<g transform="translate(352.41 18.024)">
<text class="number"  x="29.731" y="-5.3087" >10</text>
<image x="29.731" y="-5.3087" width="23.636" height="23.636" preserveAspectRatio="none" xlink:href="star1.svg"/>
<text class="number" x="-56.33" y="23.556" >10</text> 
<image x="-56.33" y="23.556" width="23.636" height="23.636" preserveAspectRatio="none" xlink:href="star1.svg"/>
<text class="number" x="-100.7" y="75.941" >10</text>
<image x="-100.7" y="75.941" width="23.636" height="23.636" preserveAspectRatio="none" xlink:href="star1.svg"/>
<text class="number" x="-175" y="129.93" >10</text>
<image x="-175" y="129.93" width="23.636" height="23.636" preserveAspectRatio="none" xlink:href="star1.svg"/>
<text class="number" x="-323.6" y="-323.6" >10</text>
<image x="-323.6" y="-323.6" width="23.636" height="23.636" preserveAspectRatio="none" xlink:href="star1.svg"/>
<text class="number" x="-166.98" y="197.28" >10</text>

<image x="-166.98" y="197.28" width="23.636" height="23.636" preserveAspectRatio="none" xlink:href="star1.svg"/>
<text class="number" x="-280.3" y="232.56" >10</text>
<image x="-280.3" y="232.56" width="23.636" height="23.636" preserveAspectRatio="none" xlink:href="star1.svg"/>
<g fill="none" stroke="#426478">
<image x="-320.731" y="165.56" width="23.636" height="23.636" preserveAspectRatio="none" xlink:href="star1.svg"/>
<text class="number" x="-320.731" y="165.56" >300</text>

<path d="m-37.741 32.187 71.249-23.057" stroke-width=".26458px"/>
<path d="m-50.258 42.457-33.542 40.358" stroke-width=".26458px"/>
<path d="m-95.628 93.444-60.325 44.146" stroke-width=".29783px"/>
<path d="m-170.66 146.69-133.63 26.059" stroke-width=".26458px"/>
<path d="m-310.16 181.85 35.585 56.714" stroke-width=".30534px"/>
<path d="m-161.71 213.56-99.91 28.474" stroke-width=".30783px"/>
<path d="m-163.27 150.21 4.5956 49.741" stroke-width=".10873px"/>
</g>
</g>
</svg>
