<svg width="992" height="925" viewBox="0 0 992 925" fill="none" xmlns="http://www.w3.org/2000/svg">
<path d="M301.006 282.893L301.007 282.893C301.731 282.72 302.674 282.279 303.716 281.729C304.8 281.157 306.137 280.387 307.702 279.46C308.982 278.703 310.4 277.849 311.97 276.904C314.301 275.5 316.966 273.896 320.001 272.11C330.075 266.184 343.814 258.51 360.575 251.006C394.103 235.995 439.683 221.681 492.135 223.382L492.203 223.384L492.272 223.38L492.205 222.243C492.272 223.38 492.272 223.38 492.272 223.38L492.274 223.38L492.284 223.379L492.323 223.377C492.36 223.375 492.414 223.372 492.487 223.368C492.634 223.361 492.853 223.35 493.144 223.337C493.725 223.311 494.589 223.276 495.716 223.243C497.968 223.177 501.267 223.116 505.442 223.139C513.792 223.183 525.641 223.56 539.618 224.888C567.586 227.546 604.004 234.009 637.951 249.2L639.616 246.762C637.256 244.441 634.907 242.447 632.472 240.381C626.411 235.238 619.817 229.642 611.2 217.421L611.2 217.42C610.429 216.328 610.182 215.206 610.33 214.043C610.483 212.844 611.069 211.518 612.114 210.122C614.212 207.317 617.95 204.513 622.541 202.294C627.111 200.085 632.398 198.519 637.484 198.095C642.583 197.67 647.348 198.402 651.003 200.631L664.677 208.967L665.023 209.178L665.427 209.186C690.075 209.693 732.488 211.402 767.436 218.816C784.931 222.528 800.393 227.638 810.815 234.634C816.015 238.123 819.882 242.031 822.156 246.391C824.413 250.72 825.146 255.582 823.944 261.114L823.692 262.275L824.763 262.787C831.936 266.21 841.727 273.435 854.179 284.592C866.451 295.588 881.221 310.324 898.497 328.813C889.584 351.177 880.287 365.075 870.792 371.014C763.297 377.764 658.462 417.635 575.059 474.12C582.024 457.506 586.491 440.912 589.755 427.348L586.975 426.288C578.928 441.268 572.022 453.253 568.869 458.726C568.049 460.149 567.483 461.132 567.216 461.612C560.607 473.499 548.823 487.516 538.081 499.276C532.723 505.142 527.648 510.422 523.642 514.565C523.161 515.063 522.694 515.546 522.242 516.012C518.975 519.388 516.538 521.907 515.56 523.106C515.56 523.106 515.56 523.106 515.56 523.106L516.722 524.054L301.006 282.893ZM301.006 282.893C234.174 298.752 188.639 328.633 160.381 366.556C132.119 404.483 121.031 450.6 123.358 499.122C128.015 596.227 186.409 702.715 267.779 771.406L266.385 773.99L228.23 762.67M301.006 282.893L228.23 762.67M443.261 710.67L441.034 712.194C434.392 716.739 430.063 718.927 422.919 720.484C427.273 708.773 429.209 696.024 425.952 683.563L424.501 683.943L425.952 683.563C424.213 676.916 421.663 670.778 419.161 664.755C418.855 664.02 418.55 663.285 418.248 662.552C415.453 655.785 412.837 649.069 411.455 641.631C410.795 638.076 410.038 634.689 409.298 631.39L409.275 631.283L409.235 631.181C409.15 630.96 409.065 630.737 408.98 630.514C408.505 629.272 408.022 628.008 407.487 626.707C406.567 623.863 405.672 621.026 404.83 618.172L404.824 618.152L404.817 618.131C403.711 614.747 402.728 611.355 401.738 607.939C401.175 605.995 400.609 604.043 400.018 602.081C400.016 602.075 400.014 602.068 400.012 602.062L397.82 594.007L396.73 589.997L396.721 589.962L395.727 585.93L395.725 585.923L395.723 585.916C392.954 575.149 390.664 564.285 388.696 553.377C386.732 542.48 385.157 531.529 384.171 520.545L384.17 520.54C382.114 498.564 381.966 476.442 384.354 454.512C386.853 432.6 391.498 410.813 400.509 390.242L397.924 388.756C391.103 398.103 386.165 408.691 382.001 419.404L381.996 419.416L381.992 419.428C377.992 430.252 374.936 441.456 372.871 452.835C372.871 452.835 372.871 452.836 372.871 452.836L374.347 453.103L443.261 710.67ZM443.261 710.67L443.379 713.366C443.442 714.786 443.503 716.206 443.564 717.626L443.645 719.517C443.646 719.53 443.647 719.543 443.647 719.556M443.261 710.67L443.647 719.556M228.23 762.67C232.492 782.712 242.699 807.442 254.749 829.374C261.015 840.776 267.76 851.388 274.396 860.16C280.891 868.747 287.224 875.492 292.845 879.512C344.112 877.849 394.487 862.966 443.974 834.806C446.215 814.446 444.024 803.094 439.884 796.324C435.734 789.539 429.457 787.063 422.65 784.843C422.09 784.66 421.526 784.479 420.957 784.297C414.749 782.307 408.142 780.19 403.499 774.536C398.387 768.31 395.864 758.133 397.724 740.117C398.552 732.095 400.283 724.501 402.024 716.867C402.259 715.837 402.494 714.806 402.727 713.774C404.693 705.059 406.53 696.153 407.023 686.165C408.007 666.251 403.656 641.82 383.824 606.198C376.516 593.074 367.956 578.706 356.188 565.445L358.091 563.168C366.696 568.411 376.75 576.896 383.015 584.265C380.083 574.966 377.654 565.507 375.59 555.97L228.23 762.67ZM443.647 719.556C451.49 715.509 457.611 711.466 459.385 702.854C460.468 697.572 460.302 691.224 459.781 685.747C459.375 681.531 459.219 678.396 459.604 675.27C459.992 672.132 460.915 669.084 462.561 665.004L463.952 665.566L443.647 719.556Z" stroke="#9AB4C1" stroke-width="3"/>
</svg>
